<svg width="30" height="30" viewBox="0 0 30 30" fill="none" xmlns="http://www.w3.org/2000/svg">
<path d="M27.6375 26.825L2.98751 2.16248L1.38751 3.74998L5.07501 7.43748C3.40321 9.60377 2.49755 12.2636 2.50001 15C2.50001 21.875 8.12501 27.5 15 27.5C17.85 27.5 20.4625 26.5375 22.5625 24.925L26.05 28.4125L27.6375 26.825ZM11.175 13.5375H10.45L10.625 13.0125L11.175 13.5375ZM7.71251 14.375H12.0125L12.85 15.2125H7.71251V14.375ZM18.65 21.6625C17.1625 21.6625 15.9625 20.525 15.8375 19.075C15.05 18.575 14.4125 18.9 14.1625 19.0625C14.1108 19.7717 13.7916 20.4348 13.2694 20.9176C12.7472 21.4003 12.0611 21.6666 11.35 21.6625C9.78751 21.6625 8.52501 20.4 8.52501 18.8375C8.52501 17.275 9.78751 16.0125 11.35 16.0125C12.6875 16.0125 13.8125 16.9375 14.1125 18.1875C14.5625 18 15.1625 17.925 15.8125 18.175L16.6375 19C16.7125 20 17.5 20.7625 18.475 20.8375L19.225 21.5875C19.0375 21.625 18.85 21.6625 18.65 21.6625ZM12.425 8.42498L8.40001 4.37498C10.3125 3.19998 12.575 2.49998 15 2.49998C21.875 2.49998 27.5 8.12498 27.5 15C27.5 17.425 26.8 19.6875 25.625 21.6L19.2125 15.2125H22.2875V14.375H18.375L17.5375 13.5375H19.55L17.7 8.64998L17.6875 8.61248C17.6024 8.43011 17.4546 8.28438 17.2711 8.20179C17.0875 8.1192 16.8805 8.10525 16.6875 8.16248L15 8.74998L13.3125 8.16248L13.2625 8.12498C13.1089 8.09646 12.9504 8.10921 12.8033 8.16191C12.6561 8.21461 12.5256 8.30539 12.425 8.42498ZM13.375 18.8375C13.375 19.95 12.5 20.8625 11.35 20.8625C10.2375 20.8625 9.32501 19.95 9.32501 18.8375C9.32501 17.725 10.2375 16.8125 11.35 16.8125C12.5 16.8125 13.375 17.725 13.375 18.8375Z" fill="black"/>
</svg>
