<svg width="30" height="30" viewBox="0 0 30 30" fill="none" xmlns="http://www.w3.org/2000/svg">
<path d="M24.7253 22.15C22.675 22.6423 20.5346 22.6185 18.4958 22.0806C16.457 21.5427 14.5834 20.5076 13.0428 19.068C11.5022 17.6284 10.3428 15.8291 9.66818 13.8314C8.99361 11.8337 8.82502 9.69992 9.1775 7.62108C9.1239 7.67285 9.0673 7.72144 9.008 7.76658C8.58799 8.08608 8.06299 8.20458 7.01297 8.44157L6.06045 8.65757C2.37039 9.49307 0.525361 9.91007 0.0858539 11.3216C-0.352153 12.7316 0.904868 14.203 3.42041 17.1445L4.07142 17.905C4.78543 18.7405 5.14394 19.159 5.30444 19.675C5.46494 20.1925 5.41094 20.7505 5.30294 21.865L5.20394 22.8805C4.82443 26.806 4.63393 28.768 5.78295 29.6395C6.93197 30.5125 8.66 29.7175 12.1131 28.126L13.0086 27.715C13.9896 27.262 14.4801 27.037 15.0006 27.037C15.5211 27.037 16.0116 27.262 16.9941 27.715L17.8866 28.126C21.3412 29.716 23.0692 30.511 24.2168 29.641C25.3673 28.768 25.1768 26.806 24.7973 22.8805L24.7253 22.15Z" fill="#55BDB7"/>
<path opacity="0.5" d="M10.7301 5.11159L10.238 5.99359C9.69804 6.96258 9.42803 7.44708 9.00803 7.76658C9.06803 7.72158 9.12353 7.67358 9.17753 7.62108C8.82495 9.70008 8.99354 11.8341 9.66818 13.8319C10.3428 15.8298 11.5025 17.6291 13.0432 19.0688C14.584 20.5085 16.4578 21.5435 18.4968 22.0812C20.5358 22.619 22.6764 22.6426 24.7268 22.15L24.6968 21.865C24.5903 20.7505 24.5363 20.1925 24.6968 19.675C24.8573 19.159 25.2143 18.7405 25.9298 17.905L26.5808 17.1445C29.0964 14.2045 30.3534 12.733 29.9139 11.3216C29.4759 9.91006 27.6308 9.49157 23.9408 8.65757L22.9868 8.44157C21.9382 8.20457 21.4132 8.08607 20.9917 7.76658C20.5717 7.44708 20.3017 6.96258 19.7617 5.99359L19.2712 5.11159C17.3707 1.70361 16.4211 -0.00038147 15.0006 -0.00038147C13.5801 -0.00038147 12.6306 1.70361 10.7301 5.11159Z" fill="#55BDB7"/>
</svg>
