<svg width="33" height="38" viewBox="0 0 33 38" fill="none" xmlns="http://www.w3.org/2000/svg">
<path d="M18.8125 2.9375V4.38281C24.0879 5.4668 28.0625 10.0918 28.0625 15.6562V17.0293C28.0625 20.4258 29.291 23.75 31.5312 26.2793L32.0371 26.8574C32.6875 27.5801 32.832 28.5195 32.4707 29.3867C32.1094 30.1816 31.2422 30.6875 30.375 30.6875H2.625C1.68555 30.6875 0.818359 30.1816 0.457031 29.3867C0.0957031 28.5195 0.240234 27.5801 0.890625 26.8574L1.39648 26.2793C3.63672 23.75 4.9375 20.4258 4.9375 17.0293V15.6562C4.9375 10.0918 8.83984 5.4668 14.1875 4.38281V2.9375C14.1875 1.70898 15.1992 0.625 16.5 0.625C17.7285 0.625 18.8125 1.70898 18.8125 2.9375ZM16.5 37.625C15.2715 37.625 14.043 37.1914 13.1758 36.3242C12.3086 35.457 11.875 34.2285 11.875 33H21.125C21.125 34.2285 20.6191 35.457 19.752 36.3242C18.8848 37.1914 17.6562 37.625 16.5 37.625Z" fill="black"/>
</svg>
