<svg width="39" height="38" viewBox="0 0 39 38" fill="none" xmlns="http://www.w3.org/2000/svg">
<path d="M37.1562 32.7188C38.2109 33.8438 38.2109 35.6016 37.1562 36.7266C36.0312 37.7812 34.2734 37.7812 33.1484 36.7266L24.7812 28.2891C21.8984 30.1875 18.3828 31.1719 14.5859 30.6797C8.11719 29.7656 2.91406 24.4922 2.07031 18.0938C0.875 8.53125 8.96094 0.445312 18.5234 1.64062C24.9219 2.48438 30.1953 7.6875 31.1094 14.1562C31.6016 17.9531 30.6172 21.4688 28.7188 24.2812L37.1562 32.7188ZM7.55469 16.125C7.55469 21.1172 11.5625 25.125 16.5547 25.125C21.4766 25.125 25.5547 21.1172 25.5547 16.125C25.5547 11.2031 21.4766 7.125 16.5547 7.125C11.5625 7.125 7.55469 11.2031 7.55469 16.125Z" fill="black"/>
</svg>
