<svg width="30" height="30" viewBox="0 0 30 30" fill="none" xmlns="http://www.w3.org/2000/svg">
<path d="M15 2.5C21.875 2.5 27.5 8.125 27.5 15C27.5 21.875 21.875 27.5 15 27.5C8.125 27.5 2.5 21.875 2.5 15C2.5 8.125 8.125 2.5 15 2.5ZM18.65 16.0125C17.3 16.0125 16.1875 16.95 15.8875 18.2C15.2125 17.9125 14.575 17.9875 14.1125 18.1875C13.8125 16.9375 12.6875 16.0125 11.35 16.0125C9.7875 16.0125 8.525 17.275 8.525 18.8375C8.525 20.4 9.7875 21.6625 11.35 21.6625C12.85 21.6625 14.05 20.525 14.1625 19.0625C14.4125 18.9 15.05 18.575 15.8375 19.075C15.8902 19.8071 16.2261 20.4899 16.7738 20.9786C17.3216 21.4672 18.0381 21.7232 18.7715 21.6923C19.5049 21.6614 20.1974 21.3461 20.7021 20.8131C21.2068 20.2801 21.4841 19.5715 21.475 18.8375C21.475 17.275 20.2125 16.0125 18.65 16.0125ZM11.35 16.8125C12.5 16.8125 13.375 17.725 13.375 18.8375C13.375 19.95 12.5 20.8625 11.35 20.8625C10.2375 20.8625 9.325 19.95 9.325 18.8375C9.325 17.725 10.2375 16.8125 11.35 16.8125ZM18.65 16.8125C19.7625 16.8125 20.675 17.725 20.675 18.8375C20.675 19.95 19.7625 20.8625 18.65 20.8625C17.5 20.8625 16.625 19.95 16.625 18.8375C16.625 17.725 17.5 16.8125 18.65 16.8125ZM22.2875 14.375H7.7125V15.2125H22.2875V14.375ZM17.6875 8.6125C17.6024 8.43014 17.4546 8.2844 17.2711 8.20181C17.0875 8.11922 16.8804 8.10527 16.6875 8.1625L15 8.75L13.3125 8.1625L13.2625 8.125C13.0658 8.08273 12.8604 8.11247 12.6838 8.20882C12.5071 8.30517 12.371 8.46172 12.3 8.65L10.45 13.5375H19.55L17.7 8.65L17.6875 8.6125Z" fill="black"/>
</svg>
