<svg width="24" height="26" viewBox="0 0 24 26" fill="none" xmlns="http://www.w3.org/2000/svg">
<path d="M20.77 0.149999C21.47 0.149999 22.03 0.336666 22.45 0.71C22.87 1.08333 23.08 1.59667 23.08 2.25V5.925C23.08 9.02833 22.2983 11.56 20.735 13.52C19.1717 15.4567 16.99 16.635 14.19 17.055V23.25C14.19 23.88 13.9683 24.3933 13.525 24.79C13.105 25.1633 12.545 25.35 11.845 25.35C11.145 25.35 10.585 25.1633 10.165 24.79C9.745 24.4167 9.535 23.9033 9.535 23.25V17.055C6.71167 16.635 4.51833 15.4567 2.955 13.52C1.39167 11.5833 0.61 9.05167 0.61 5.925V2.25C0.61 1.59667 0.82 1.08333 1.24 0.71C1.66 0.336666 2.22 0.149999 2.92 0.149999C3.62 0.149999 4.18 0.348332 4.6 0.744999C5.04333 1.11833 5.265 1.62 5.265 2.25V6.03C5.265 8.45667 5.825 10.3233 6.945 11.63C8.08833 12.9133 9.72167 13.555 11.845 13.555C13.9683 13.555 15.59 12.9133 16.71 11.63C17.8533 10.3233 18.425 8.45667 18.425 6.03V2.25C18.425 1.62 18.635 1.11833 19.055 0.744999C19.4983 0.348332 20.07 0.149999 20.77 0.149999Z" fill="#5B8291"/>
</svg>
