<svg width="33" height="25" viewBox="0 0 33 25" fill="none" xmlns="http://www.w3.org/2000/svg">
<mask id="path-1-outside-1_112_153" maskUnits="userSpaceOnUse" x="-1" y="-1" width="35" height="27" fill="black">
<rect fill="white" x="-1" y="-1" width="35" height="27"/>
<path d="M0.94043 0.732422C1.73796 0.823568 2.41016 0.891927 2.95703 0.9375C3.50391 0.960286 3.93685 0.983073 4.25586 1.00586C4.64323 1.02865 4.95085 1.04004 5.17871 1.04004C5.56608 1.04004 6.01042 1.02865 6.51172 1.00586C6.94466 0.983073 7.44596 0.948893 8.01562 0.90332C8.60807 0.834961 9.24609 0.732422 9.92969 0.595703C9.61068 0.9375 9.34863 1.2679 9.14355 1.58691C8.93848 1.88314 8.77897 2.15658 8.66504 2.40723C8.52832 2.68066 8.41439 2.93132 8.32324 3.15918C8.2321 3.4554 8.12956 3.91113 8.01562 4.52637C7.90169 5.05046 7.77637 5.79102 7.63965 6.74805C7.52572 7.70508 7.3776 8.95833 7.19531 10.5078C7.97005 10.5306 8.64225 10.542 9.21191 10.542C9.78158 10.5192 10.2601 10.5078 10.6475 10.5078H11.7754C12.0944 10.485 12.459 10.4622 12.8691 10.4395C13.5527 10.4167 14.5895 10.3483 15.9795 10.2344C16.0934 9.1862 16.1504 8.28613 16.1504 7.53418C16.1732 6.75944 16.1618 6.11003 16.1162 5.58594C16.0706 4.99349 16.0023 4.49219 15.9111 4.08203C15.8428 3.85417 15.7402 3.58073 15.6035 3.26172C15.4896 2.98828 15.3301 2.65788 15.125 2.27051C14.9427 1.86035 14.6921 1.37044 14.373 0.800781C14.9655 0.891927 15.4896 0.960286 15.9453 1.00586C16.4238 1.02865 16.8226 1.05143 17.1416 1.07422C17.5062 1.09701 17.8138 1.1084 18.0645 1.1084C18.3151 1.1084 18.6455 1.09701 19.0557 1.07422C19.3975 1.05143 19.819 1.04004 20.3203 1.04004C20.8216 1.01725 21.4368 0.983073 22.166 0.9375C21.9837 1.25651 21.8242 1.58691 21.6875 1.92871C21.5508 2.27051 21.4368 2.57812 21.3457 2.85156C21.2546 3.17057 21.1634 3.48958 21.0723 3.80859C20.9583 4.28711 20.8558 4.9821 20.7646 5.89355C20.6963 6.80501 20.6279 7.81901 20.5596 8.93555C20.514 10.0521 20.4684 11.2142 20.4229 12.4219C20.4001 13.6296 20.3773 14.7689 20.3545 15.8398C20.3545 16.9108 20.3659 17.8678 20.3887 18.7109C20.4115 19.5312 20.457 20.1123 20.5254 20.4541C20.5938 20.8643 20.7077 21.2858 20.8672 21.7188C21.0039 22.1061 21.1862 22.5277 21.4141 22.9834C21.6419 23.4163 21.9382 23.8265 22.3027 24.2139L14.0654 24.8291C14.4072 24.5101 14.6807 24.2025 14.8857 23.9062C15.0908 23.5872 15.2503 23.3138 15.3643 23.0859C15.4782 22.8353 15.5579 22.596 15.6035 22.3682C15.6263 22.0947 15.6605 21.6162 15.7061 20.9326C15.7516 20.363 15.7972 19.554 15.8428 18.5059C15.8883 17.4577 15.9339 16.0677 15.9795 14.3359C15.6605 14.3359 15.2731 14.3473 14.8174 14.3701C14.3844 14.3701 13.9743 14.3815 13.5869 14.4043C13.1312 14.4271 12.6527 14.4385 12.1514 14.4385C11.6501 14.4613 11.126 14.484 10.5791 14.5068C10.1234 14.5524 9.61068 14.598 9.04102 14.6436C8.49414 14.6663 7.94727 14.7005 7.40039 14.7461C7.35482 15.7031 7.35482 16.5462 7.40039 17.2754C7.44596 17.9818 7.51432 18.5856 7.60547 19.0869C7.69661 19.6794 7.81055 20.1921 7.94727 20.625C8.08398 21.0352 8.2321 21.4453 8.3916 21.8555C8.52832 22.2201 8.68783 22.6074 8.87012 23.0176C9.0752 23.4277 9.28027 23.7923 9.48535 24.1113C9.05241 24.0658 8.65365 24.0316 8.28906 24.0088C7.92448 23.9632 7.60547 23.9176 7.33203 23.8721C7.01302 23.8493 6.7054 23.8265 6.40918 23.8037C6.11296 23.8037 5.75977 23.7923 5.34961 23.7695C4.98503 23.7467 4.5293 23.7354 3.98242 23.7354C3.43555 23.7126 2.79753 23.7012 2.06836 23.7012C2.5013 23.2682 2.8431 22.8467 3.09375 22.4365C3.36719 22.0036 3.56087 21.6162 3.6748 21.2744C3.81152 20.8643 3.90267 20.4883 3.94824 20.1465C3.97103 19.8503 3.98242 19.292 3.98242 18.4717C4.00521 17.6514 4.00521 16.7171 3.98242 15.6689C3.98242 14.598 3.97103 13.4814 3.94824 12.3193C3.92546 11.1344 3.89128 10.0293 3.8457 9.00391C3.82292 7.97852 3.78874 7.10124 3.74316 6.37207C3.72038 5.62012 3.69759 5.15299 3.6748 4.9707C3.56087 4.56055 3.38997 4.11621 3.16211 3.6377C2.95703 3.25033 2.68359 2.80599 2.3418 2.30469C2 1.7806 1.53288 1.25651 0.94043 0.732422ZM25.208 0.356445C25.641 0.470378 26.0511 0.561523 26.4385 0.629883C26.8258 0.675456 27.1676 0.721029 27.4639 0.766602C27.8057 0.812174 28.1247 0.846354 28.4209 0.869141C28.7399 0.891927 29.1159 0.914714 29.5488 0.9375C29.9362 0.960286 30.4033 0.97168 30.9502 0.97168C31.4971 0.97168 32.1465 0.97168 32.8984 0.97168C32.2376 2.54395 31.7021 3.87695 31.292 4.9707C30.8818 6.04167 30.5628 6.93034 30.335 7.63672C30.0843 8.45703 29.902 9.12923 29.7881 9.65332C29.6969 10.1774 29.583 10.8154 29.4463 11.5674C29.3324 12.2282 29.1729 13.0371 28.9678 13.9941C28.7627 14.9512 28.5348 16.0905 28.2842 17.4121L25.2764 17.2754C25.4587 16.0677 25.584 15.0423 25.6523 14.1992C25.7207 13.3333 25.7777 12.6156 25.8232 12.0459C25.8688 11.3851 25.8916 10.8382 25.8916 10.4053C25.8916 9.94954 25.8574 9.26595 25.7891 8.35449C25.7435 7.60254 25.6751 6.58854 25.584 5.3125C25.4928 4.01367 25.3675 2.36165 25.208 0.356445ZM28.9678 20.0098C29.1273 20.2604 29.2184 20.5452 29.2412 20.8643C29.2868 21.1605 29.264 21.4681 29.1729 21.7871C29.1045 22.0833 28.9564 22.3682 28.7285 22.6416C28.5234 22.915 28.2386 23.1315 27.874 23.291C27.1449 23.6328 26.4954 23.724 25.9258 23.5645C25.3561 23.3822 24.9346 23.0859 24.6611 22.6758C24.5016 22.4479 24.4105 22.1973 24.3877 21.9238C24.3877 21.6276 24.4447 21.3428 24.5586 21.0693C24.6725 20.7731 24.8548 20.4997 25.1055 20.249C25.3561 19.9984 25.6751 19.7933 26.0625 19.6338C26.8145 19.3148 27.4297 19.2008 27.9082 19.292C28.4095 19.3831 28.7627 19.6224 28.9678 20.0098Z"/>
</mask>
<g filter="url(#filter0_i_112_153)">
<path d="M0.94043 0.732422C1.73796 0.823568 2.41016 0.891927 2.95703 0.9375C3.50391 0.960286 3.93685 0.983073 4.25586 1.00586C4.64323 1.02865 4.95085 1.04004 5.17871 1.04004C5.56608 1.04004 6.01042 1.02865 6.51172 1.00586C6.94466 0.983073 7.44596 0.948893 8.01562 0.90332C8.60807 0.834961 9.24609 0.732422 9.92969 0.595703C9.61068 0.9375 9.34863 1.2679 9.14355 1.58691C8.93848 1.88314 8.77897 2.15658 8.66504 2.40723C8.52832 2.68066 8.41439 2.93132 8.32324 3.15918C8.2321 3.4554 8.12956 3.91113 8.01562 4.52637C7.90169 5.05046 7.77637 5.79102 7.63965 6.74805C7.52572 7.70508 7.3776 8.95833 7.19531 10.5078C7.97005 10.5306 8.64225 10.542 9.21191 10.542C9.78158 10.5192 10.2601 10.5078 10.6475 10.5078H11.7754C12.0944 10.485 12.459 10.4622 12.8691 10.4395C13.5527 10.4167 14.5895 10.3483 15.9795 10.2344C16.0934 9.1862 16.1504 8.28613 16.1504 7.53418C16.1732 6.75944 16.1618 6.11003 16.1162 5.58594C16.0706 4.99349 16.0023 4.49219 15.9111 4.08203C15.8428 3.85417 15.7402 3.58073 15.6035 3.26172C15.4896 2.98828 15.3301 2.65788 15.125 2.27051C14.9427 1.86035 14.6921 1.37044 14.373 0.800781C14.9655 0.891927 15.4896 0.960286 15.9453 1.00586C16.4238 1.02865 16.8226 1.05143 17.1416 1.07422C17.5062 1.09701 17.8138 1.1084 18.0645 1.1084C18.3151 1.1084 18.6455 1.09701 19.0557 1.07422C19.3975 1.05143 19.819 1.04004 20.3203 1.04004C20.8216 1.01725 21.4368 0.983073 22.166 0.9375C21.9837 1.25651 21.8242 1.58691 21.6875 1.92871C21.5508 2.27051 21.4368 2.57812 21.3457 2.85156C21.2546 3.17057 21.1634 3.48958 21.0723 3.80859C20.9583 4.28711 20.8558 4.9821 20.7646 5.89355C20.6963 6.80501 20.6279 7.81901 20.5596 8.93555C20.514 10.0521 20.4684 11.2142 20.4229 12.4219C20.4001 13.6296 20.3773 14.7689 20.3545 15.8398C20.3545 16.9108 20.3659 17.8678 20.3887 18.7109C20.4115 19.5312 20.457 20.1123 20.5254 20.4541C20.5938 20.8643 20.7077 21.2858 20.8672 21.7188C21.0039 22.1061 21.1862 22.5277 21.4141 22.9834C21.6419 23.4163 21.9382 23.8265 22.3027 24.2139L14.0654 24.8291C14.4072 24.5101 14.6807 24.2025 14.8857 23.9062C15.0908 23.5872 15.2503 23.3138 15.3643 23.0859C15.4782 22.8353 15.5579 22.596 15.6035 22.3682C15.6263 22.0947 15.6605 21.6162 15.7061 20.9326C15.7516 20.363 15.7972 19.554 15.8428 18.5059C15.8883 17.4577 15.9339 16.0677 15.9795 14.3359C15.6605 14.3359 15.2731 14.3473 14.8174 14.3701C14.3844 14.3701 13.9743 14.3815 13.5869 14.4043C13.1312 14.4271 12.6527 14.4385 12.1514 14.4385C11.6501 14.4613 11.126 14.484 10.5791 14.5068C10.1234 14.5524 9.61068 14.598 9.04102 14.6436C8.49414 14.6663 7.94727 14.7005 7.40039 14.7461C7.35482 15.7031 7.35482 16.5462 7.40039 17.2754C7.44596 17.9818 7.51432 18.5856 7.60547 19.0869C7.69661 19.6794 7.81055 20.1921 7.94727 20.625C8.08398 21.0352 8.2321 21.4453 8.3916 21.8555C8.52832 22.2201 8.68783 22.6074 8.87012 23.0176C9.0752 23.4277 9.28027 23.7923 9.48535 24.1113C9.05241 24.0658 8.65365 24.0316 8.28906 24.0088C7.92448 23.9632 7.60547 23.9176 7.33203 23.8721C7.01302 23.8493 6.7054 23.8265 6.40918 23.8037C6.11296 23.8037 5.75977 23.7923 5.34961 23.7695C4.98503 23.7467 4.5293 23.7354 3.98242 23.7354C3.43555 23.7126 2.79753 23.7012 2.06836 23.7012C2.5013 23.2682 2.8431 22.8467 3.09375 22.4365C3.36719 22.0036 3.56087 21.6162 3.6748 21.2744C3.81152 20.8643 3.90267 20.4883 3.94824 20.1465C3.97103 19.8503 3.98242 19.292 3.98242 18.4717C4.00521 17.6514 4.00521 16.7171 3.98242 15.6689C3.98242 14.598 3.97103 13.4814 3.94824 12.3193C3.92546 11.1344 3.89128 10.0293 3.8457 9.00391C3.82292 7.97852 3.78874 7.10124 3.74316 6.37207C3.72038 5.62012 3.69759 5.15299 3.6748 4.9707C3.56087 4.56055 3.38997 4.11621 3.16211 3.6377C2.95703 3.25033 2.68359 2.80599 2.3418 2.30469C2 1.7806 1.53288 1.25651 0.94043 0.732422ZM25.208 0.356445C25.641 0.470378 26.0511 0.561523 26.4385 0.629883C26.8258 0.675456 27.1676 0.721029 27.4639 0.766602C27.8057 0.812174 28.1247 0.846354 28.4209 0.869141C28.7399 0.891927 29.1159 0.914714 29.5488 0.9375C29.9362 0.960286 30.4033 0.97168 30.9502 0.97168C31.4971 0.97168 32.1465 0.97168 32.8984 0.97168C32.2376 2.54395 31.7021 3.87695 31.292 4.9707C30.8818 6.04167 30.5628 6.93034 30.335 7.63672C30.0843 8.45703 29.902 9.12923 29.7881 9.65332C29.6969 10.1774 29.583 10.8154 29.4463 11.5674C29.3324 12.2282 29.1729 13.0371 28.9678 13.9941C28.7627 14.9512 28.5348 16.0905 28.2842 17.4121L25.2764 17.2754C25.4587 16.0677 25.584 15.0423 25.6523 14.1992C25.7207 13.3333 25.7777 12.6156 25.8232 12.0459C25.8688 11.3851 25.8916 10.8382 25.8916 10.4053C25.8916 9.94954 25.8574 9.26595 25.7891 8.35449C25.7435 7.60254 25.6751 6.58854 25.584 5.3125C25.4928 4.01367 25.3675 2.36165 25.208 0.356445ZM28.9678 20.0098C29.1273 20.2604 29.2184 20.5452 29.2412 20.8643C29.2868 21.1605 29.264 21.4681 29.1729 21.7871C29.1045 22.0833 28.9564 22.3682 28.7285 22.6416C28.5234 22.915 28.2386 23.1315 27.874 23.291C27.1449 23.6328 26.4954 23.724 25.9258 23.5645C25.3561 23.3822 24.9346 23.0859 24.6611 22.6758C24.5016 22.4479 24.4105 22.1973 24.3877 21.9238C24.3877 21.6276 24.4447 21.3428 24.5586 21.0693C24.6725 20.7731 24.8548 20.4997 25.1055 20.249C25.3561 19.9984 25.6751 19.7933 26.0625 19.6338C26.8145 19.3148 27.4297 19.2008 27.9082 19.292C28.4095 19.3831 28.7627 19.6224 28.9678 20.0098Z" fill="#55BDB7"/>
</g>
<path d="M0.94043 0.732422L0.985848 0.335009L-0.27548 0.190857L0.6754 1.03202L0.94043 0.732422ZM2.95703 0.9375L2.92381 1.33612L2.93209 1.33681L2.94038 1.33715L2.95703 0.9375ZM4.25586 1.00586L4.22736 1.40487L4.23237 1.40517L4.25586 1.00586ZM6.51172 1.00586L6.52988 1.40546L6.53274 1.40531L6.51172 1.00586ZM8.01562 0.90332L8.04754 1.30229L8.06147 1.30068L8.01562 0.90332ZM9.92969 0.595703L10.2221 0.86863L11.0705 -0.0403859L9.85124 0.203471L9.92969 0.595703ZM9.14355 1.58691L9.47262 1.81473L9.48003 1.80322L9.14355 1.58691ZM8.66504 2.40723L9.02281 2.58611L9.02612 2.57949L9.02919 2.57275L8.66504 2.40723ZM8.32324 3.15918L7.95185 3.01062L7.94576 3.02586L7.94093 3.04155L8.32324 3.15918ZM8.01562 4.52637L8.40668 4.61138L8.40894 4.5992L8.01562 4.52637ZM7.63965 6.74805L7.24356 6.69146L7.24245 6.70076L7.63965 6.74805ZM7.19531 10.5078L6.79805 10.4611L6.74703 10.8948L7.18355 10.9076L7.19531 10.5078ZM9.21191 10.542V10.942H9.21991L9.2279 10.9417L9.21191 10.542ZM11.7754 10.5078V10.9078H11.7897L11.8039 10.9068L11.7754 10.5078ZM12.8691 10.4395L12.8558 10.0396L12.847 10.0401L12.8691 10.4395ZM15.9795 10.2344L16.0122 10.633L16.3414 10.606L16.3771 10.2776L15.9795 10.2344ZM16.1504 7.53418L15.7504 7.52241V7.53418H16.1504ZM16.1162 5.58594L15.7174 5.61662L15.7177 5.62059L16.1162 5.58594ZM15.9111 4.08203L16.3016 3.99526L16.2984 3.98104L16.2943 3.96709L15.9111 4.08203ZM15.6035 3.26172L15.2343 3.41557L15.2359 3.41929L15.6035 3.26172ZM15.125 2.27051L14.7595 2.43296L14.7651 2.44552L14.7715 2.45766L15.125 2.27051ZM14.373 0.800781L14.4339 0.405433L13.6234 0.280741L14.024 0.996223L14.373 0.800781ZM15.9453 1.00586L15.9055 1.40387L15.9159 1.40491L15.9263 1.40541L15.9453 1.00586ZM17.1416 1.07422L17.1131 1.47322L17.1167 1.47344L17.1416 1.07422ZM19.0557 1.07422L19.0779 1.47363L19.0823 1.47333L19.0557 1.07422ZM20.3203 1.04004V1.44004H20.3294L20.3385 1.43963L20.3203 1.04004ZM22.166 0.9375L22.5133 1.13596L22.8813 0.492016L22.1411 0.538279L22.166 0.9375ZM21.3457 2.85156L20.9662 2.72507L20.9635 2.73332L20.9611 2.74167L21.3457 2.85156ZM21.0723 3.80859L20.6877 3.69871L20.6852 3.70728L20.6831 3.71595L21.0723 3.80859ZM20.7646 5.89355L20.3665 5.85374L20.3658 5.86364L20.7646 5.89355ZM20.5596 8.93555L20.1602 8.9111L20.1599 8.91923L20.5596 8.93555ZM20.4229 12.4219L20.0231 12.4068L20.0229 12.4143L20.4229 12.4219ZM20.3545 15.8398L19.9545 15.8313V15.8398H20.3545ZM20.3887 18.7109L19.9888 18.7217L19.9888 18.722L20.3887 18.7109ZM20.5254 20.4541L20.9202 20.3883L20.9176 20.3757L20.5254 20.4541ZM20.8672 21.7188L21.2444 21.5856L21.2425 21.5805L20.8672 21.7188ZM21.4141 22.9834L21.0562 23.1623L21.0601 23.1697L21.4141 22.9834ZM22.3027 24.2139L22.3325 24.6128L23.1687 24.5503L22.594 23.9397L22.3027 24.2139ZM14.0654 24.8291L13.7925 24.5367L12.9611 25.3127L14.0952 25.228L14.0654 24.8291ZM14.8857 23.9062L15.2148 24.1341L15.2222 24.1226L14.8857 23.9062ZM15.3643 23.0859L15.722 23.2648L15.7253 23.2582L15.7284 23.2515L15.3643 23.0859ZM15.6035 22.3682L15.9957 22.4466L16.0002 22.4242L16.0021 22.4014L15.6035 22.3682ZM15.7061 20.9326L15.3073 20.9007L15.3069 20.906L15.7061 20.9326ZM15.9795 14.3359L16.3794 14.3465L16.3902 13.9359H15.9795V14.3359ZM14.8174 14.3701V14.7701H14.8274L14.8374 14.7696L14.8174 14.3701ZM13.5869 14.4043L13.6069 14.8038L13.6104 14.8036L13.5869 14.4043ZM12.1514 14.4385V14.0385H12.1423L12.1332 14.0389L12.1514 14.4385ZM10.5791 14.5068L10.5624 14.1072L10.5509 14.1077L10.5393 14.1088L10.5791 14.5068ZM9.04102 14.6436L9.05767 15.0432L9.0653 15.0429L9.07291 15.0423L9.04102 14.6436ZM7.40039 14.7461L7.36717 14.3475L7.01753 14.3766L7.00084 14.7271L7.40039 14.7461ZM7.40039 17.2754L7.00117 17.3003L7.00122 17.3011L7.40039 17.2754ZM7.60547 19.0869L8.00096 19.0261L7.99902 19.0154L7.60547 19.0869ZM7.94727 20.625L7.56578 20.7455L7.56779 20.7515L7.94727 20.625ZM8.3916 21.8555L8.76616 21.715L8.7644 21.7105L8.3916 21.8555ZM8.87012 23.0176L8.50459 23.18L8.50828 23.1883L8.51235 23.1965L8.87012 23.0176ZM9.48535 24.1113L9.44348 24.5091L10.2727 24.5964L9.82182 23.895L9.48535 24.1113ZM8.28906 24.0088L8.23945 24.4057L8.25174 24.4072L8.26411 24.408L8.28906 24.0088ZM7.33203 23.8721L7.39779 23.4775L7.37926 23.4744L7.36053 23.4731L7.33203 23.8721ZM6.40918 23.8037L6.43986 23.4049L6.42454 23.4037H6.40918V23.8037ZM5.34961 23.7695L5.32466 24.1688L5.32742 24.1689L5.34961 23.7695ZM3.98242 23.7354L3.96577 24.135L3.97409 24.1354H3.98242V23.7354ZM2.06836 23.7012L1.78552 23.4183L1.10267 24.1012H2.06836V23.7012ZM3.09375 22.4365L2.75552 22.2229L2.75244 22.2279L3.09375 22.4365ZM3.94824 20.1465L4.34473 20.1993L4.34621 20.1883L4.34706 20.1772L3.94824 20.1465ZM3.98242 18.4717L3.58242 18.4606V18.4717H3.98242ZM3.98242 15.6689H3.58233L3.58252 15.6776L3.98242 15.6689ZM3.94824 12.3193L3.54832 12.327L3.54832 12.3272L3.94824 12.3193ZM3.8457 9.00391L3.4457 9.0128L3.4461 9.02167L3.8457 9.00391ZM3.74316 6.37207L3.34314 6.38419L3.34394 6.39702L3.74316 6.37207ZM3.6748 4.9707L4.07172 4.92109L4.06807 4.89195L4.06021 4.86365L3.6748 4.9707ZM3.16211 3.6377L3.52325 3.46572L3.5196 3.45805L3.51562 3.45054L3.16211 3.6377ZM2.3418 2.30469L2.00668 2.52324L2.01131 2.53002L2.3418 2.30469ZM0.895011 1.12983C1.69493 1.22125 2.37148 1.29009 2.92381 1.33612L2.99025 0.538882C2.44883 0.493764 1.78098 0.425881 0.985848 0.335009L0.895011 1.12983ZM2.94038 1.33715C3.48565 1.35987 3.91409 1.38247 4.22736 1.40484L4.28436 0.606876C3.9596 0.583679 3.52216 0.5607 2.97368 0.537847L2.94038 1.33715ZM4.23237 1.40517C4.62296 1.42815 4.93946 1.44004 5.17871 1.44004V0.640039C4.96223 0.640039 4.6635 0.629147 4.27935 0.60655L4.23237 1.40517ZM5.17871 1.44004C5.5736 1.44004 6.02419 1.42843 6.52988 1.40545L6.49356 0.606272C5.99665 0.628859 5.55856 0.640039 5.17871 0.640039V1.44004ZM6.53274 1.40531C6.97024 1.38228 7.4753 1.34782 8.04752 1.30205L7.98373 0.504594C7.41662 0.549962 6.91908 0.583866 6.4907 0.606412L6.53274 1.40531ZM8.06147 1.30068C8.66649 1.23087 9.3155 1.12646 10.0081 0.987935L9.85124 0.203471C9.17669 0.338381 8.54965 0.439048 7.96978 0.505957L8.06147 1.30068ZM9.63727 0.322776C9.30551 0.678223 9.0277 1.02744 8.80708 1.37061L9.48003 1.80322C9.66957 1.50837 9.91584 1.19678 10.2221 0.86863L9.63727 0.322776ZM8.81468 1.35923C8.59991 1.66945 8.42718 1.96387 8.30089 2.24171L9.02919 2.57275C9.13076 2.34928 9.27704 2.09683 9.47243 1.8146L8.81468 1.35923ZM8.30727 2.22834C8.16674 2.5094 8.04797 2.77033 7.95185 3.01062L8.69463 3.30774C8.78081 3.0923 8.8899 2.85192 9.02281 2.58611L8.30727 2.22834ZM7.94093 3.04155C7.84271 3.36075 7.73683 3.83513 7.62231 4.45353L8.40894 4.5992C8.52228 3.98714 8.62148 3.55006 8.70555 3.27681L7.94093 3.04155ZM7.62475 4.4414C7.50777 4.97951 7.38086 5.73116 7.24367 6.69148L8.03563 6.80462C8.17188 5.85087 8.29561 5.12141 8.4065 4.61134L7.62475 4.4414ZM7.24245 6.70076C7.12849 7.65805 6.98035 8.91151 6.79805 10.4611L7.59257 10.5545C7.77485 9.00516 7.92294 7.7521 8.03684 6.79533L7.24245 6.70076ZM7.18355 10.9076C7.96092 10.9305 8.63723 10.942 9.21191 10.942V10.142C8.64728 10.142 7.97918 10.1307 7.20707 10.108L7.18355 10.9076ZM9.2279 10.9417C9.79446 10.919 10.2673 10.9078 10.6475 10.9078V10.1078C10.2529 10.1078 9.76869 10.1194 9.19593 10.1423L9.2279 10.9417ZM10.6475 10.9078H11.7754V10.1078H10.6475V10.9078ZM11.8039 10.9068C12.1203 10.8842 12.4827 10.8615 12.8913 10.8388L12.847 10.0401C12.4352 10.0629 12.0685 10.0859 11.7469 10.1088L11.8039 10.9068ZM12.8825 10.8392C13.5762 10.8161 14.6209 10.7471 16.0122 10.633L15.9468 9.83571C14.5581 9.94954 13.5293 10.0172 12.8558 10.0397L12.8825 10.8392ZM16.3771 10.2776C16.4921 9.22029 16.5504 8.30501 16.5504 7.53418H15.7504C15.7504 8.26725 15.6948 9.15211 15.5818 10.1912L16.3771 10.2776ZM16.5502 7.54594C16.5733 6.76223 16.5621 6.09616 16.5147 5.55129L15.7177 5.62059C15.7615 6.12389 15.7731 6.75665 15.7506 7.52242L16.5502 7.54594ZM16.515 5.55526C16.4686 4.951 16.3982 4.42971 16.3016 3.99526L15.5207 4.1688C15.6064 4.55466 15.6727 5.03598 15.7174 5.61662L16.515 5.55526ZM16.2943 3.96709C16.2201 3.71982 16.1114 3.43138 15.9712 3.10415L15.2359 3.41929C15.3691 3.73008 15.4655 3.98851 15.528 4.19697L16.2943 3.96709ZM15.9727 3.10787C15.8524 2.81913 15.6869 2.47697 15.4785 2.08335L14.7715 2.45766C14.9733 2.83879 15.1267 3.15743 15.2343 3.41556L15.9727 3.10787ZM15.4905 2.10805C15.3016 1.68287 15.0446 1.18138 14.722 0.60534L14.024 0.996223C14.3395 1.5595 14.5839 2.03784 14.7595 2.43296L15.4905 2.10805ZM14.3122 1.19613C14.9097 1.28804 15.441 1.35742 15.9055 1.40387L15.9851 0.607844C15.5382 0.56315 15.0213 0.495811 14.4339 0.405433L14.3122 1.19613ZM15.9263 1.40541C16.403 1.42811 16.7984 1.45072 17.1131 1.4732L17.1701 0.675235C16.8468 0.652143 16.4446 0.629183 15.9643 0.606312L15.9263 1.40541ZM17.1167 1.47344C17.4862 1.49653 17.8027 1.5084 18.0645 1.5084V0.708398C17.8249 0.708398 17.5262 0.697476 17.1666 0.674998L17.1167 1.47344ZM18.0645 1.5084C18.3257 1.5084 18.6643 1.49658 19.0779 1.4736L19.0335 0.674835C18.6267 0.697434 18.3046 0.708398 18.0645 0.708398V1.5084ZM19.0823 1.47333C19.4122 1.45134 19.8242 1.44004 20.3203 1.44004V0.640039C19.8138 0.640039 19.3827 0.651526 19.0291 0.675105L19.0823 1.47333ZM20.3385 1.43963C20.8428 1.4167 21.4605 1.38238 22.191 1.33672L22.1411 0.538279C21.4132 0.583768 20.8004 0.617803 20.3021 0.640452L20.3385 1.43963ZM21.8187 0.739044C21.6272 1.07414 21.4597 1.42122 21.3161 1.78015L22.0589 2.07727C22.1888 1.75261 22.3402 1.43888 22.5133 1.13596L21.8187 0.739044ZM21.3161 1.78015C21.1772 2.12735 21.0604 2.4425 20.9662 2.72507L21.7252 2.97805C21.8133 2.71375 21.9243 2.41367 22.0589 2.07727L21.3161 1.78015ZM20.9611 2.74167C20.9408 2.81257 20.913 2.91004 20.8927 2.98093C20.8725 3.05182 20.8446 3.1493 20.8244 3.22019C20.8193 3.23791 20.7953 3.3221 20.7902 3.33982C20.7851 3.35754 20.7611 3.44172 20.756 3.45945C20.751 3.47717 20.7269 3.56135 20.7218 3.57908C20.7168 3.5968 20.6927 3.68098 20.6877 3.69871L21.4569 3.91848C21.4771 3.84759 21.505 3.75012 21.5252 3.67922C21.5455 3.60833 21.5733 3.51086 21.5936 3.43997C21.5987 3.42224 21.6227 3.33806 21.6278 3.32034C21.6328 3.30261 21.6569 3.21843 21.662 3.20071C21.667 3.18299 21.6911 3.0988 21.6961 3.08108C21.7012 3.06336 21.7252 2.97917 21.7303 2.96145L20.9611 2.74167ZM20.6831 3.71595C20.5629 4.22079 20.4583 4.93687 20.3666 5.85375L21.1627 5.93336C21.2533 5.02732 21.3537 4.35343 21.4614 3.90124L20.6831 3.71595ZM20.3658 5.86364C20.2972 6.77727 20.2288 7.79313 20.1603 8.9111L20.9588 8.95999C21.0271 7.84489 21.0953 6.83276 21.1635 5.92347L20.3658 5.86364ZM20.1599 8.91923C20.1143 10.0362 20.0687 11.1987 20.0231 12.4068L20.8226 12.437C20.8681 11.2297 20.9137 10.068 20.9592 8.95186L20.1599 8.91923ZM20.0229 12.4143C20.0001 13.6217 19.9774 14.7607 19.9546 15.8313L20.7544 15.8484C20.7772 14.777 20.8 13.6374 20.8228 12.4294L20.0229 12.4143ZM19.9545 15.8398C19.9545 16.9135 19.9659 17.8742 19.9888 18.7217L20.7885 18.7001C20.7659 17.8614 20.7545 16.9081 20.7545 15.8398H19.9545ZM19.9888 18.722C20.0116 19.5429 20.0575 20.1542 20.1332 20.5325L20.9176 20.3757C20.8566 20.0704 20.8113 19.5196 20.7885 18.6998L19.9888 18.722ZM20.1308 20.5199C20.2037 20.9573 20.3246 21.4031 20.4919 21.857L21.2425 21.5805C21.0908 21.1685 20.9838 20.7713 20.9199 20.3883L20.1308 20.5199ZM20.49 21.8519C20.6334 22.2581 20.8227 22.6951 21.0563 23.1623L21.7718 22.8045C21.5497 22.3603 21.3745 21.9542 21.2444 21.5856L20.49 21.8519ZM21.0601 23.1697C21.3062 23.6373 21.6242 24.0766 22.0115 24.488L22.594 23.9397C22.2521 23.5764 21.9777 23.1954 21.768 22.7971L21.0601 23.1697ZM22.2729 23.815L14.0356 24.4302L14.0952 25.228L22.3325 24.6128L22.2729 23.815ZM14.3384 25.1215C14.6952 24.7884 14.9893 24.4594 15.2146 24.1339L14.5569 23.6786C14.372 23.9455 14.1192 24.2318 13.7925 24.5367L14.3384 25.1215ZM15.2222 24.1226C15.4317 23.7967 15.5994 23.5101 15.722 23.2648L15.0065 22.9071C14.9013 23.1175 14.7499 23.3778 14.5493 23.6899L15.2222 24.1226ZM15.7284 23.2515C15.8527 22.9779 15.9432 22.7094 15.9957 22.4466L15.2113 22.2897C15.1727 22.4827 15.1036 22.6927 15.0001 22.9204L15.7284 23.2515ZM16.0021 22.4014C16.0252 22.1243 16.0596 21.6427 16.1052 20.9592L15.3069 20.906C15.2614 21.5897 15.2274 22.0652 15.2049 22.3349L16.0021 22.4014ZM16.1048 20.9645C16.1509 20.3876 16.1968 19.573 16.2424 18.5232L15.4432 18.4885C15.3976 19.5351 15.3523 20.3383 15.3073 20.9007L16.1048 20.9645ZM16.2424 18.5232C16.2881 17.4718 16.3338 16.0793 16.3794 14.3465L15.5796 14.3254C15.5341 16.0562 15.4886 17.4436 15.4432 18.4885L16.2424 18.5232ZM15.9795 13.9359C15.6517 13.9359 15.2572 13.9476 14.7974 13.9706L14.8374 14.7696C15.289 14.747 15.6693 14.7359 15.9795 14.7359V13.9359ZM14.8174 13.9701C14.3775 13.9701 13.9594 13.9817 13.5634 14.005L13.6104 14.8036C13.9891 14.7813 14.3914 14.7701 14.8174 14.7701V13.9701ZM13.5669 14.0048C13.1185 14.0272 12.6466 14.0385 12.1514 14.0385V14.8385C12.6587 14.8385 13.1439 14.8269 13.6069 14.8038L13.5669 14.0048ZM12.1332 14.0389C11.6324 14.0617 11.1089 14.0844 10.5624 14.1072L10.5958 14.9065C11.1431 14.8837 11.6677 14.8609 12.1695 14.8381L12.1332 14.0389ZM10.5393 14.1088C10.0868 14.1541 9.57676 14.1994 9.00912 14.2448L9.07291 15.0423C9.6446 14.9965 10.16 14.9507 10.6189 14.9049L10.5393 14.1088ZM9.02436 14.2439C8.47195 14.2669 7.91955 14.3014 7.36717 14.3475L7.43361 15.1447C7.97498 15.0996 8.51634 15.0658 9.05767 15.0432L9.02436 14.2439ZM7.00084 14.7271C6.95477 15.6945 6.95445 16.5528 7.00117 17.3003L7.79961 17.2504C7.75518 16.5396 7.75486 15.7117 7.79994 14.7651L7.00084 14.7271ZM7.00122 17.3011C7.04743 18.0175 7.11719 18.6375 7.21192 19.1585L7.99902 19.0154C7.91145 18.5337 7.84449 17.9461 7.79956 17.2496L7.00122 17.3011ZM7.21012 19.1477C7.30345 19.7544 7.42137 20.288 7.56583 20.7455L8.3287 20.5045C8.19972 20.0961 8.08978 19.6043 8.00082 19.0261L7.21012 19.1477ZM7.56779 20.7515C7.70662 21.168 7.85696 21.5843 8.0188 22.0004L8.7644 21.7105C8.60723 21.3063 8.46135 20.9023 8.32674 20.4985L7.56779 20.7515ZM8.01707 21.9959C8.15695 22.3689 8.31955 22.7637 8.50459 23.18L9.23564 22.8551C9.0561 22.4511 8.89969 22.0712 8.76613 21.715L8.01707 21.9959ZM8.51235 23.1965C8.72257 23.6169 8.93463 23.9944 9.14888 24.3276L9.82182 23.895C9.62592 23.5903 9.42782 23.2386 9.22789 22.8387L8.51235 23.1965ZM9.52723 23.7135C9.08968 23.6675 8.68519 23.6328 8.31401 23.6096L8.26411 24.408C8.6221 24.4304 9.01514 24.464 9.44348 24.5091L9.52723 23.7135ZM8.33868 23.6119C7.97787 23.5668 7.66447 23.522 7.39779 23.4775L7.26627 24.2666C7.54647 24.3133 7.87108 24.3597 8.23945 24.4057L8.33868 23.6119ZM7.36053 23.4731C7.04219 23.4503 6.7353 23.4276 6.43986 23.4049L6.3785 24.2025C6.6755 24.2254 6.98385 24.2482 7.30353 24.2711L7.36053 23.4731ZM6.40918 23.4037C6.12256 23.4037 5.77715 23.3927 5.3718 23.3701L5.32742 24.1689C5.74238 24.192 6.10335 24.2037 6.40918 24.2037V23.4037ZM5.37456 23.3703C4.99869 23.3468 4.53397 23.3354 3.98242 23.3354V24.1354C4.52462 24.1354 4.97136 24.1467 5.32466 24.1688L5.37456 23.3703ZM3.99907 23.3357C3.44518 23.3126 2.80138 23.3012 2.06836 23.3012V24.1012C2.79367 24.1012 3.42591 24.1125 3.96577 24.135L3.99907 23.3357ZM2.3512 23.984C2.80073 23.5345 3.16415 23.0884 3.43506 22.6451L2.75244 22.2279C2.52204 22.605 2.20187 23.002 1.78552 23.4183L2.3512 23.984ZM3.43195 22.6501C3.71602 22.2003 3.92687 21.7831 4.05428 21.4009L3.29533 21.1479C3.19487 21.4493 3.01836 21.8068 2.75555 22.2229L3.43195 22.6501ZM4.05428 21.4009C4.19707 20.9725 4.29511 20.5715 4.34473 20.1993L3.55175 20.0936C3.51023 20.405 3.42598 20.756 3.29533 21.1479L4.05428 21.4009ZM4.34706 20.1772C4.3712 19.8634 4.38242 19.2904 4.38242 18.4717H3.58242C3.58242 19.2936 3.57086 19.8371 3.54942 20.1158L4.34706 20.1772ZM4.38227 18.4828C4.40528 17.6544 4.40522 16.7133 4.38233 15.6603L3.58252 15.6776C3.6052 16.7209 3.60514 17.6484 3.58258 18.4606L4.38227 18.4828ZM4.38242 15.6689C4.38242 14.5952 4.371 13.476 4.34817 12.3115L3.54832 12.3272C3.57106 13.4869 3.58242 14.6008 3.58242 15.6689H4.38242ZM4.34817 12.3116C4.32533 11.1239 4.29105 10.0154 4.24531 8.98615L3.4461 9.02167C3.4915 10.0432 3.52558 11.145 3.54832 12.327L4.34817 12.3116ZM4.2456 8.99502C4.22274 7.96622 4.1884 7.08328 4.14239 6.34712L3.34394 6.39702C3.38908 7.11919 3.42309 7.99081 3.4458 9.01279L4.2456 8.99502ZM4.14298 6.35995C4.12042 5.61535 4.09738 5.12637 4.07172 4.92109L3.27789 5.02032C3.29781 5.17962 3.32034 5.62489 3.34335 6.38419L4.14298 6.35995ZM4.06021 4.86365C3.9388 4.42656 3.75877 3.9603 3.52325 3.46572L2.80097 3.80967C3.02118 4.27213 3.18295 4.69453 3.2894 5.07776L4.06021 4.86365ZM3.51562 3.45054C3.30152 3.04612 3.01954 2.58865 2.67229 2.07935L2.01131 2.53002C2.34765 3.02333 2.61254 3.45453 2.80859 3.82485L3.51562 3.45054ZM2.67684 2.08618C2.31108 1.52535 1.81805 0.974731 1.20546 0.432823L0.6754 1.03202C1.2477 1.53829 1.68892 2.03585 2.00675 2.52319L2.67684 2.08618ZM25.208 0.356445L25.3098 -0.0303845L24.7646 -0.17387L24.8093 0.388163L25.208 0.356445ZM26.4385 0.629883L26.369 1.0238L26.3803 1.0258L26.3917 1.02714L26.4385 0.629883ZM27.4639 0.766602L27.403 1.16203L27.411 1.16309L27.4639 0.766602ZM28.4209 0.869141L28.3902 1.26797L28.3924 1.26812L28.4209 0.869141ZM29.5488 0.9375L29.5723 0.538183L29.5699 0.538053L29.5488 0.9375ZM32.8984 0.97168L33.2672 1.12666L33.5004 0.57168H32.8984V0.97168ZM31.292 4.9707L31.6655 5.11377L31.6665 5.11115L31.292 4.9707ZM30.335 7.63672L29.9542 7.5139L29.9524 7.51983L30.335 7.63672ZM29.7881 9.65332L29.3972 9.56835L29.3954 9.57653L29.394 9.58478L29.7881 9.65332ZM29.4463 11.5674L29.0527 11.4958L29.0521 11.4994L29.4463 11.5674ZM28.2842 17.4121L28.266 17.8117L28.6125 17.8274L28.6772 17.4866L28.2842 17.4121ZM25.2764 17.2754L24.8808 17.2157L24.8146 17.6548L25.2582 17.675L25.2764 17.2754ZM25.6523 14.1992L26.051 14.2315L26.0511 14.2307L25.6523 14.1992ZM25.8232 12.0459L26.222 12.0778L26.2223 12.0734L25.8232 12.0459ZM25.7891 8.35449L25.3898 8.37869L25.3902 8.38441L25.7891 8.35449ZM25.584 5.3125L25.185 5.3405L25.185 5.341L25.584 5.3125ZM28.9678 20.0098L28.6143 20.1969L28.6217 20.211L28.6303 20.2245L28.9678 20.0098ZM29.2412 20.8643L28.8422 20.8928L28.8434 20.909L28.8459 20.9251L29.2412 20.8643ZM29.1729 21.7871L28.7882 21.6772L28.7854 21.6871L28.7831 21.6972L29.1729 21.7871ZM28.7285 22.6416L28.4212 22.3855L28.4147 22.3934L28.4085 22.4016L28.7285 22.6416ZM27.874 23.291L27.7136 22.9244L27.7042 22.9288L27.874 23.291ZM25.9258 23.5645L25.8039 23.9454L25.8109 23.9477L25.8179 23.9496L25.9258 23.5645ZM24.6611 22.6758L24.994 22.4538L24.9888 22.4464L24.6611 22.6758ZM24.3877 21.9238H23.9877V21.9405L23.9891 21.957L24.3877 21.9238ZM24.5586 21.0693L24.928 21.2232L24.9319 21.2129L24.5586 21.0693ZM26.0625 19.6338L26.2148 20.0037L26.2187 20.002L26.0625 19.6338ZM27.9082 19.292L27.8334 19.6849L27.8366 19.6855L27.9082 19.292ZM25.1062 0.743275C25.5484 0.859638 25.9694 0.953282 26.369 1.0238L26.508 0.235969C26.1328 0.169765 25.7335 0.0811174 25.3098 -0.0303845L25.1062 0.743275ZM26.3917 1.02714C26.7757 1.07232 27.1127 1.11727 27.403 1.16195L27.5247 0.371253C27.2226 0.324783 26.876 0.278595 26.4852 0.232623L26.3917 1.02714ZM27.411 1.16309C27.759 1.2095 28.0855 1.24452 28.3902 1.26796L28.4516 0.470319C28.1638 0.448185 27.8523 0.414852 27.5167 0.37011L27.411 1.16309ZM28.3924 1.26812C28.7146 1.29114 29.0932 1.31407 29.5278 1.33695L29.5699 0.538053C29.1386 0.515355 28.7652 0.492716 28.4494 0.470157L28.3924 1.26812ZM29.5253 1.33681C29.923 1.3602 30.3984 1.37168 30.9502 1.37168V0.57168C30.4083 0.57168 29.9494 0.560373 29.5723 0.53819L29.5253 1.33681ZM30.9502 1.37168C30.9513 1.37168 30.9523 1.37168 30.9534 1.37168C30.9545 1.37168 30.9555 1.37168 30.9566 1.37168C30.9577 1.37168 30.9587 1.37168 30.9598 1.37168C30.9609 1.37168 30.962 1.37168 30.963 1.37168C30.9641 1.37168 30.9652 1.37168 30.9662 1.37168C30.9673 1.37168 30.9684 1.37168 30.9695 1.37168C30.9705 1.37168 30.9716 1.37168 30.9727 1.37168C30.9738 1.37168 30.9748 1.37168 30.9759 1.37168C30.977 1.37168 30.9781 1.37168 30.9791 1.37168C30.9802 1.37168 30.9813 1.37168 30.9824 1.37168C30.9834 1.37168 30.9845 1.37168 30.9856 1.37168C30.9867 1.37168 30.9877 1.37168 30.9888 1.37168C30.9899 1.37168 30.991 1.37168 30.9921 1.37168C30.9931 1.37168 30.9942 1.37168 30.9953 1.37168C30.9964 1.37168 30.9974 1.37168 30.9985 1.37168C30.9996 1.37168 31.0007 1.37168 31.0018 1.37168C31.0028 1.37168 31.0039 1.37168 31.005 1.37168C31.0061 1.37168 31.0072 1.37168 31.0083 1.37168C31.0093 1.37168 31.0104 1.37168 31.0115 1.37168C31.0126 1.37168 31.0137 1.37168 31.0148 1.37168C31.0158 1.37168 31.0169 1.37168 31.018 1.37168C31.0191 1.37168 31.0202 1.37168 31.0213 1.37168C31.0223 1.37168 31.0234 1.37168 31.0245 1.37168C31.0256 1.37168 31.0267 1.37168 31.0278 1.37168C31.0289 1.37168 31.0299 1.37168 31.031 1.37168C31.0321 1.37168 31.0332 1.37168 31.0343 1.37168C31.0354 1.37168 31.0365 1.37168 31.0376 1.37168C31.0387 1.37168 31.0397 1.37168 31.0408 1.37168C31.0419 1.37168 31.043 1.37168 31.0441 1.37168C31.0452 1.37168 31.0463 1.37168 31.0474 1.37168C31.0485 1.37168 31.0496 1.37168 31.0507 1.37168C31.0518 1.37168 31.0528 1.37168 31.0539 1.37168C31.055 1.37168 31.0561 1.37168 31.0572 1.37168C31.0583 1.37168 31.0594 1.37168 31.0605 1.37168C31.0616 1.37168 31.0627 1.37168 31.0638 1.37168C31.0649 1.37168 31.066 1.37168 31.0671 1.37168C31.0682 1.37168 31.0693 1.37168 31.0704 1.37168C31.0715 1.37168 31.0726 1.37168 31.0737 1.37168C31.0748 1.37168 31.0759 1.37168 31.0769 1.37168C31.078 1.37168 31.0791 1.37168 31.0802 1.37168C31.0813 1.37168 31.0824 1.37168 31.0835 1.37168C31.0846 1.37168 31.0857 1.37168 31.0868 1.37168C31.0879 1.37168 31.0891 1.37168 31.0902 1.37168C31.0913 1.37168 31.0924 1.37168 31.0935 1.37168C31.0946 1.37168 31.0957 1.37168 31.0968 1.37168C31.0979 1.37168 31.099 1.37168 31.1001 1.37168C31.1012 1.37168 31.1023 1.37168 31.1034 1.37168C31.1045 1.37168 31.1056 1.37168 31.1067 1.37168C31.1078 1.37168 31.1089 1.37168 31.11 1.37168C31.1111 1.37168 31.1122 1.37168 31.1133 1.37168C31.1145 1.37168 31.1156 1.37168 31.1167 1.37168C31.1178 1.37168 31.1189 1.37168 31.12 1.37168C31.1211 1.37168 31.1222 1.37168 31.1233 1.37168C31.1244 1.37168 31.1255 1.37168 31.1267 1.37168C31.1278 1.37168 31.1289 1.37168 31.13 1.37168C31.1311 1.37168 31.1322 1.37168 31.1333 1.37168C31.1344 1.37168 31.1355 1.37168 31.1367 1.37168C31.1378 1.37168 31.1389 1.37168 31.14 1.37168C31.1411 1.37168 31.1422 1.37168 31.1433 1.37168C31.1445 1.37168 31.1456 1.37168 31.1467 1.37168C31.1478 1.37168 31.1489 1.37168 31.15 1.37168C31.1511 1.37168 31.1523 1.37168 31.1534 1.37168C31.1545 1.37168 31.1556 1.37168 31.1567 1.37168C31.1578 1.37168 31.159 1.37168 31.1601 1.37168C31.1612 1.37168 31.1623 1.37168 31.1634 1.37168C31.1646 1.37168 31.1657 1.37168 31.1668 1.37168C31.1679 1.37168 31.169 1.37168 31.1702 1.37168C31.1713 1.37168 31.1724 1.37168 31.1735 1.37168C31.1746 1.37168 31.1758 1.37168 31.1769 1.37168C31.178 1.37168 31.1791 1.37168 31.1802 1.37168C31.1814 1.37168 31.1825 1.37168 31.1836 1.37168C31.1847 1.37168 31.1859 1.37168 31.187 1.37168C31.1881 1.37168 31.1892 1.37168 31.1904 1.37168C31.1915 1.37168 31.1926 1.37168 31.1937 1.37168C31.1949 1.37168 31.196 1.37168 31.1971 1.37168C31.1982 1.37168 31.1994 1.37168 31.2005 1.37168C31.2016 1.37168 31.2028 1.37168 31.2039 1.37168C31.205 1.37168 31.2061 1.37168 31.2073 1.37168C31.2084 1.37168 31.2095 1.37168 31.2107 1.37168C31.2118 1.37168 31.2129 1.37168 31.2141 1.37168C31.2152 1.37168 31.2163 1.37168 31.2174 1.37168C31.2186 1.37168 31.2197 1.37168 31.2208 1.37168C31.222 1.37168 31.2231 1.37168 31.2242 1.37168C31.2254 1.37168 31.2265 1.37168 31.2276 1.37168C31.2288 1.37168 31.2299 1.37168 31.231 1.37168C31.2322 1.37168 31.2333 1.37168 31.2344 1.37168C31.2356 1.37168 31.2367 1.37168 31.2379 1.37168C31.239 1.37168 31.2401 1.37168 31.2413 1.37168C31.2424 1.37168 31.2435 1.37168 31.2447 1.37168C31.2458 1.37168 31.247 1.37168 31.2481 1.37168C31.2492 1.37168 31.2504 1.37168 31.2515 1.37168C31.2526 1.37168 31.2538 1.37168 31.2549 1.37168C31.2561 1.37168 31.2572 1.37168 31.2583 1.37168C31.2595 1.37168 31.2606 1.37168 31.2618 1.37168C31.2629 1.37168 31.2641 1.37168 31.2652 1.37168C31.2663 1.37168 31.2675 1.37168 31.2686 1.37168C31.2698 1.37168 31.2709 1.37168 31.2721 1.37168C31.2732 1.37168 31.2743 1.37168 31.2755 1.37168C31.2766 1.37168 31.2778 1.37168 31.2789 1.37168C31.2801 1.37168 31.2812 1.37168 31.2824 1.37168C31.2835 1.37168 31.2847 1.37168 31.2858 1.37168C31.287 1.37168 31.2881 1.37168 31.2892 1.37168C31.2904 1.37168 31.2915 1.37168 31.2927 1.37168C31.2938 1.37168 31.295 1.37168 31.2961 1.37168C31.2973 1.37168 31.2984 1.37168 31.2996 1.37168C31.3007 1.37168 31.3019 1.37168 31.303 1.37168C31.3042 1.37168 31.3053 1.37168 31.3065 1.37168C31.3076 1.37168 31.3088 1.37168 31.31 1.37168C31.3111 1.37168 31.3123 1.37168 31.3134 1.37168C31.3146 1.37168 31.3157 1.37168 31.3169 1.37168C31.318 1.37168 31.3192 1.37168 31.3203 1.37168C31.3215 1.37168 31.3226 1.37168 31.3238 1.37168C31.325 1.37168 31.3261 1.37168 31.3273 1.37168C31.3284 1.37168 31.3296 1.37168 31.3307 1.37168C31.3319 1.37168 31.3331 1.37168 31.3342 1.37168C31.3354 1.37168 31.3365 1.37168 31.3377 1.37168C31.3388 1.37168 31.34 1.37168 31.3412 1.37168C31.3423 1.37168 31.3435 1.37168 31.3446 1.37168C31.3458 1.37168 31.347 1.37168 31.3481 1.37168C31.3493 1.37168 31.3505 1.37168 31.3516 1.37168C31.3528 1.37168 31.3539 1.37168 31.3551 1.37168C31.3563 1.37168 31.3574 1.37168 31.3586 1.37168C31.3598 1.37168 31.3609 1.37168 31.3621 1.37168C31.3632 1.37168 31.3644 1.37168 31.3656 1.37168C31.3667 1.37168 31.3679 1.37168 31.3691 1.37168C31.3702 1.37168 31.3714 1.37168 31.3726 1.37168C31.3737 1.37168 31.3749 1.37168 31.3761 1.37168C31.3772 1.37168 31.3784 1.37168 31.3796 1.37168C31.3807 1.37168 31.3819 1.37168 31.3831 1.37168C31.3843 1.37168 31.3854 1.37168 31.3866 1.37168C31.3878 1.37168 31.3889 1.37168 31.3901 1.37168C31.3913 1.37168 31.3924 1.37168 31.3936 1.37168C31.3948 1.37168 31.396 1.37168 31.3971 1.37168C31.3983 1.37168 31.3995 1.37168 31.4006 1.37168C31.4018 1.37168 31.403 1.37168 31.4042 1.37168C31.4053 1.37168 31.4065 1.37168 31.4077 1.37168C31.4089 1.37168 31.41 1.37168 31.4112 1.37168C31.4124 1.37168 31.4136 1.37168 31.4147 1.37168C31.4159 1.37168 31.4171 1.37168 31.4183 1.37168C31.4194 1.37168 31.4206 1.37168 31.4218 1.37168C31.423 1.37168 31.4242 1.37168 31.4253 1.37168C31.4265 1.37168 31.4277 1.37168 31.4289 1.37168C31.4301 1.37168 31.4312 1.37168 31.4324 1.37168C31.4336 1.37168 31.4348 1.37168 31.436 1.37168C31.4371 1.37168 31.4383 1.37168 31.4395 1.37168C31.4407 1.37168 31.4419 1.37168 31.443 1.37168C31.4442 1.37168 31.4454 1.37168 31.4466 1.37168C31.4478 1.37168 31.449 1.37168 31.4501 1.37168C31.4513 1.37168 31.4525 1.37168 31.4537 1.37168C31.4549 1.37168 31.4561 1.37168 31.4573 1.37168C31.4584 1.37168 31.4596 1.37168 31.4608 1.37168C31.462 1.37168 31.4632 1.37168 31.4644 1.37168C31.4656 1.37168 31.4667 1.37168 31.4679 1.37168C31.4691 1.37168 31.4703 1.37168 31.4715 1.37168C31.4727 1.37168 31.4739 1.37168 31.4751 1.37168C31.4763 1.37168 31.4774 1.37168 31.4786 1.37168C31.4798 1.37168 31.481 1.37168 31.4822 1.37168C31.4834 1.37168 31.4846 1.37168 31.4858 1.37168C31.487 1.37168 31.4882 1.37168 31.4894 1.37168C31.4905 1.37168 31.4917 1.37168 31.4929 1.37168C31.4941 1.37168 31.4953 1.37168 31.4965 1.37168C31.4977 1.37168 31.4989 1.37168 31.5001 1.37168C31.5013 1.37168 31.5025 1.37168 31.5037 1.37168C31.5049 1.37168 31.5061 1.37168 31.5073 1.37168C31.5085 1.37168 31.5097 1.37168 31.5109 1.37168C31.5121 1.37168 31.5133 1.37168 31.5145 1.37168C31.5157 1.37168 31.5168 1.37168 31.518 1.37168C31.5192 1.37168 31.5204 1.37168 31.5216 1.37168C31.5228 1.37168 31.524 1.37168 31.5252 1.37168C31.5264 1.37168 31.5276 1.37168 31.5288 1.37168C31.53 1.37168 31.5312 1.37168 31.5325 1.37168C31.5337 1.37168 31.5349 1.37168 31.5361 1.37168C31.5373 1.37168 31.5385 1.37168 31.5397 1.37168C31.5409 1.37168 31.5421 1.37168 31.5433 1.37168C31.5445 1.37168 31.5457 1.37168 31.5469 1.37168C31.5481 1.37168 31.5493 1.37168 31.5505 1.37168C31.5517 1.37168 31.5529 1.37168 31.5541 1.37168C31.5553 1.37168 31.5565 1.37168 31.5577 1.37168C31.559 1.37168 31.5602 1.37168 31.5614 1.37168C31.5626 1.37168 31.5638 1.37168 31.565 1.37168C31.5662 1.37168 31.5674 1.37168 31.5686 1.37168C31.5698 1.37168 31.571 1.37168 31.5723 1.37168C31.5735 1.37168 31.5747 1.37168 31.5759 1.37168C31.5771 1.37168 31.5783 1.37168 31.5795 1.37168C31.5807 1.37168 31.5819 1.37168 31.5832 1.37168C31.5844 1.37168 31.5856 1.37168 31.5868 1.37168C31.588 1.37168 31.5892 1.37168 31.5904 1.37168C31.5917 1.37168 31.5929 1.37168 31.5941 1.37168C31.5953 1.37168 31.5965 1.37168 31.5977 1.37168C31.599 1.37168 31.6002 1.37168 31.6014 1.37168C31.6026 1.37168 31.6038 1.37168 31.605 1.37168C31.6063 1.37168 31.6075 1.37168 31.6087 1.37168C31.6099 1.37168 31.6111 1.37168 31.6123 1.37168C31.6136 1.37168 31.6148 1.37168 31.616 1.37168C31.6172 1.37168 31.6184 1.37168 31.6197 1.37168C31.6209 1.37168 31.6221 1.37168 31.6233 1.37168C31.6245 1.37168 31.6258 1.37168 31.627 1.37168C31.6282 1.37168 31.6294 1.37168 31.6307 1.37168C31.6319 1.37168 31.6331 1.37168 31.6343 1.37168C31.6356 1.37168 31.6368 1.37168 31.638 1.37168C31.6392 1.37168 31.6405 1.37168 31.6417 1.37168C31.6429 1.37168 31.6441 1.37168 31.6454 1.37168C31.6466 1.37168 31.6478 1.37168 31.649 1.37168C31.6503 1.37168 31.6515 1.37168 31.6527 1.37168C31.6539 1.37168 31.6552 1.37168 31.6564 1.37168C31.6576 1.37168 31.6589 1.37168 31.6601 1.37168C31.6613 1.37168 31.6625 1.37168 31.6638 1.37168C31.665 1.37168 31.6662 1.37168 31.6675 1.37168C31.6687 1.37168 31.6699 1.37168 31.6712 1.37168C31.6724 1.37168 31.6736 1.37168 31.6749 1.37168C31.6761 1.37168 31.6773 1.37168 31.6786 1.37168C31.6798 1.37168 31.681 1.37168 31.6823 1.37168C31.6835 1.37168 31.6847 1.37168 31.686 1.37168C31.6872 1.37168 31.6884 1.37168 31.6897 1.37168C31.6909 1.37168 31.6921 1.37168 31.6934 1.37168C31.6946 1.37168 31.6958 1.37168 31.6971 1.37168C31.6983 1.37168 31.6996 1.37168 31.7008 1.37168C31.702 1.37168 31.7033 1.37168 31.7045 1.37168C31.7057 1.37168 31.707 1.37168 31.7082 1.37168C31.7095 1.37168 31.7107 1.37168 31.7119 1.37168C31.7132 1.37168 31.7144 1.37168 31.7157 1.37168C31.7169 1.37168 31.7182 1.37168 31.7194 1.37168C31.7206 1.37168 31.7219 1.37168 31.7231 1.37168C31.7244 1.37168 31.7256 1.37168 31.7268 1.37168C31.7281 1.37168 31.7293 1.37168 31.7306 1.37168C31.7318 1.37168 31.7331 1.37168 31.7343 1.37168C31.7356 1.37168 31.7368 1.37168 31.738 1.37168C31.7393 1.37168 31.7405 1.37168 31.7418 1.37168C31.743 1.37168 31.7443 1.37168 31.7455 1.37168C31.7468 1.37168 31.748 1.37168 31.7493 1.37168C31.7505 1.37168 31.7518 1.37168 31.753 1.37168C31.7543 1.37168 31.7555 1.37168 31.7568 1.37168C31.758 1.37168 31.7593 1.37168 31.7605 1.37168C31.7618 1.37168 31.763 1.37168 31.7643 1.37168C31.7655 1.37168 31.7668 1.37168 31.768 1.37168C31.7693 1.37168 31.7705 1.37168 31.7718 1.37168C31.773 1.37168 31.7743 1.37168 31.7755 1.37168C31.7768 1.37168 31.778 1.37168 31.7793 1.37168C31.7806 1.37168 31.7818 1.37168 31.7831 1.37168C31.7843 1.37168 31.7856 1.37168 31.7868 1.37168C31.7881 1.37168 31.7893 1.37168 31.7906 1.37168C31.7919 1.37168 31.7931 1.37168 31.7944 1.37168C31.7956 1.37168 31.7969 1.37168 31.7981 1.37168C31.7994 1.37168 31.8007 1.37168 31.8019 1.37168C31.8032 1.37168 31.8044 1.37168 31.8057 1.37168C31.807 1.37168 31.8082 1.37168 31.8095 1.37168C31.8107 1.37168 31.812 1.37168 31.8133 1.37168C31.8145 1.37168 31.8158 1.37168 31.817 1.37168C31.8183 1.37168 31.8196 1.37168 31.8208 1.37168C31.8221 1.37168 31.8234 1.37168 31.8246 1.37168C31.8259 1.37168 31.8272 1.37168 31.8284 1.37168C31.8297 1.37168 31.8309 1.37168 31.8322 1.37168C31.8335 1.37168 31.8347 1.37168 31.836 1.37168C31.8373 1.37168 31.8385 1.37168 31.8398 1.37168C31.8411 1.37168 31.8423 1.37168 31.8436 1.37168C31.8449 1.37168 31.8461 1.37168 31.8474 1.37168C31.8487 1.37168 31.8499 1.37168 31.8512 1.37168C31.8525 1.37168 31.8538 1.37168 31.855 1.37168C31.8563 1.37168 31.8576 1.37168 31.8588 1.37168C31.8601 1.37168 31.8614 1.37168 31.8627 1.37168C31.8639 1.37168 31.8652 1.37168 31.8665 1.37168C31.8677 1.37168 31.869 1.37168 31.8703 1.37168C31.8716 1.37168 31.8728 1.37168 31.8741 1.37168C31.8754 1.37168 31.8767 1.37168 31.8779 1.37168C31.8792 1.37168 31.8805 1.37168 31.8818 1.37168C31.883 1.37168 31.8843 1.37168 31.8856 1.37168C31.8869 1.37168 31.8881 1.37168 31.8894 1.37168C31.8907 1.37168 31.892 1.37168 31.8932 1.37168C31.8945 1.37168 31.8958 1.37168 31.8971 1.37168C31.8984 1.37168 31.8996 1.37168 31.9009 1.37168C31.9022 1.37168 31.9035 1.37168 31.9048 1.37168C31.906 1.37168 31.9073 1.37168 31.9086 1.37168C31.9099 1.37168 31.9112 1.37168 31.9124 1.37168C31.9137 1.37168 31.915 1.37168 31.9163 1.37168C31.9176 1.37168 31.9189 1.37168 31.9201 1.37168C31.9214 1.37168 31.9227 1.37168 31.924 1.37168C31.9253 1.37168 31.9266 1.37168 31.9278 1.37168C31.9291 1.37168 31.9304 1.37168 31.9317 1.37168C31.933 1.37168 31.9343 1.37168 31.9356 1.37168C31.9368 1.37168 31.9381 1.37168 31.9394 1.37168C31.9407 1.37168 31.942 1.37168 31.9433 1.37168C31.9446 1.37168 31.9459 1.37168 31.9471 1.37168C31.9484 1.37168 31.9497 1.37168 31.951 1.37168C31.9523 1.37168 31.9536 1.37168 31.9549 1.37168C31.9562 1.37168 31.9575 1.37168 31.9587 1.37168C31.96 1.37168 31.9613 1.37168 31.9626 1.37168C31.9639 1.37168 31.9652 1.37168 31.9665 1.37168C31.9678 1.37168 31.9691 1.37168 31.9704 1.37168C31.9717 1.37168 31.973 1.37168 31.9743 1.37168C31.9756 1.37168 31.9768 1.37168 31.9781 1.37168C31.9794 1.37168 31.9807 1.37168 31.982 1.37168C31.9833 1.37168 31.9846 1.37168 31.9859 1.37168C31.9872 1.37168 31.9885 1.37168 31.9898 1.37168C31.9911 1.37168 31.9924 1.37168 31.9937 1.37168C31.995 1.37168 31.9963 1.37168 31.9976 1.37168C31.9989 1.37168 32.0002 1.37168 32.0015 1.37168C32.0028 1.37168 32.0041 1.37168 32.0054 1.37168C32.0067 1.37168 32.008 1.37168 32.0093 1.37168C32.0106 1.37168 32.0119 1.37168 32.0132 1.37168C32.0145 1.37168 32.0158 1.37168 32.0171 1.37168C32.0184 1.37168 32.0197 1.37168 32.021 1.37168C32.0223 1.37168 32.0236 1.37168 32.0249 1.37168C32.0262 1.37168 32.0275 1.37168 32.0288 1.37168C32.0302 1.37168 32.0315 1.37168 32.0328 1.37168C32.0341 1.37168 32.0354 1.37168 32.0367 1.37168C32.038 1.37168 32.0393 1.37168 32.0406 1.37168C32.0419 1.37168 32.0432 1.37168 32.0445 1.37168C32.0458 1.37168 32.0471 1.37168 32.0485 1.37168C32.0498 1.37168 32.0511 1.37168 32.0524 1.37168C32.0537 1.37168 32.055 1.37168 32.0563 1.37168C32.0576 1.37168 32.0589 1.37168 32.0602 1.37168C32.0616 1.37168 32.0629 1.37168 32.0642 1.37168C32.0655 1.37168 32.0668 1.37168 32.0681 1.37168C32.0694 1.37168 32.0707 1.37168 32.0721 1.37168C32.0734 1.37168 32.0747 1.37168 32.076 1.37168C32.0773 1.37168 32.0786 1.37168 32.0799 1.37168C32.0813 1.37168 32.0826 1.37168 32.0839 1.37168C32.0852 1.37168 32.0865 1.37168 32.0878 1.37168C32.0892 1.37168 32.0905 1.37168 32.0918 1.37168C32.0931 1.37168 32.0944 1.37168 32.0957 1.37168C32.0971 1.37168 32.0984 1.37168 32.0997 1.37168C32.101 1.37168 32.1023 1.37168 32.1037 1.37168C32.105 1.37168 32.1063 1.37168 32.1076 1.37168C32.1089 1.37168 32.1103 1.37168 32.1116 1.37168C32.1129 1.37168 32.1142 1.37168 32.1156 1.37168C32.1169 1.37168 32.1182 1.37168 32.1195 1.37168C32.1208 1.37168 32.1222 1.37168 32.1235 1.37168C32.1248 1.37168 32.1261 1.37168 32.1275 1.37168C32.1288 1.37168 32.1301 1.37168 32.1314 1.37168C32.1328 1.37168 32.1341 1.37168 32.1354 1.37168C32.1367 1.37168 32.1381 1.37168 32.1394 1.37168C32.1407 1.37168 32.1421 1.37168 32.1434 1.37168C32.1447 1.37168 32.146 1.37168 32.1474 1.37168C32.1487 1.37168 32.15 1.37168 32.1514 1.37168C32.1527 1.37168 32.154 1.37168 32.1553 1.37168C32.1567 1.37168 32.158 1.37168 32.1593 1.37168C32.1607 1.37168 32.162 1.37168 32.1633 1.37168C32.1647 1.37168 32.166 1.37168 32.1673 1.37168C32.1687 1.37168 32.17 1.37168 32.1713 1.37168C32.1727 1.37168 32.174 1.37168 32.1753 1.37168C32.1767 1.37168 32.178 1.37168 32.1793 1.37168C32.1807 1.37168 32.182 1.37168 32.1833 1.37168C32.1847 1.37168 32.186 1.37168 32.1873 1.37168C32.1887 1.37168 32.19 1.37168 32.1914 1.37168C32.1927 1.37168 32.194 1.37168 32.1954 1.37168C32.1967 1.37168 32.198 1.37168 32.1994 1.37168C32.2007 1.37168 32.2021 1.37168 32.2034 1.37168C32.2047 1.37168 32.2061 1.37168 32.2074 1.37168C32.2088 1.37168 32.2101 1.37168 32.2114 1.37168C32.2128 1.37168 32.2141 1.37168 32.2155 1.37168C32.2168 1.37168 32.2182 1.37168 32.2195 1.37168C32.2208 1.37168 32.2222 1.37168 32.2235 1.37168C32.2249 1.37168 32.2262 1.37168 32.2276 1.37168C32.2289 1.37168 32.2302 1.37168 32.2316 1.37168C32.2329 1.37168 32.2343 1.37168 32.2356 1.37168C32.237 1.37168 32.2383 1.37168 32.2397 1.37168C32.241 1.37168 32.2424 1.37168 32.2437 1.37168C32.2451 1.37168 32.2464 1.37168 32.2477 1.37168C32.2491 1.37168 32.2504 1.37168 32.2518 1.37168C32.2531 1.37168 32.2545 1.37168 32.2558 1.37168C32.2572 1.37168 32.2585 1.37168 32.2599 1.37168C32.2612 1.37168 32.2626 1.37168 32.2639 1.37168C32.2653 1.37168 32.2666 1.37168 32.268 1.37168C32.2694 1.37168 32.2707 1.37168 32.2721 1.37168C32.2734 1.37168 32.2748 1.37168 32.2761 1.37168C32.2775 1.37168 32.2788 1.37168 32.2802 1.37168C32.2815 1.37168 32.2829 1.37168 32.2842 1.37168C32.2856 1.37168 32.287 1.37168 32.2883 1.37168C32.2897 1.37168 32.291 1.37168 32.2924 1.37168C32.2937 1.37168 32.2951 1.37168 32.2965 1.37168C32.2978 1.37168 32.2992 1.37168 32.3005 1.37168C32.3019 1.37168 32.3032 1.37168 32.3046 1.37168C32.306 1.37168 32.3073 1.37168 32.3087 1.37168C32.31 1.37168 32.3114 1.37168 32.3128 1.37168C32.3141 1.37168 32.3155 1.37168 32.3168 1.37168C32.3182 1.37168 32.3196 1.37168 32.3209 1.37168C32.3223 1.37168 32.3237 1.37168 32.325 1.37168C32.3264 1.37168 32.3277 1.37168 32.3291 1.37168C32.3305 1.37168 32.3318 1.37168 32.3332 1.37168C32.3346 1.37168 32.3359 1.37168 32.3373 1.37168C32.3387 1.37168 32.34 1.37168 32.3414 1.37168C32.3428 1.37168 32.3441 1.37168 32.3455 1.37168C32.3469 1.37168 32.3482 1.37168 32.3496 1.37168C32.351 1.37168 32.3523 1.37168 32.3537 1.37168C32.3551 1.37168 32.3564 1.37168 32.3578 1.37168C32.3592 1.37168 32.3605 1.37168 32.3619 1.37168C32.3633 1.37168 32.3647 1.37168 32.366 1.37168C32.3674 1.37168 32.3688 1.37168 32.3701 1.37168C32.3715 1.37168 32.3729 1.37168 32.3743 1.37168C32.3756 1.37168 32.377 1.37168 32.3784 1.37168C32.3797 1.37168 32.3811 1.37168 32.3825 1.37168C32.3839 1.37168 32.3852 1.37168 32.3866 1.37168C32.388 1.37168 32.3894 1.37168 32.3907 1.37168C32.3921 1.37168 32.3935 1.37168 32.3949 1.37168C32.3962 1.37168 32.3976 1.37168 32.399 1.37168C32.4004 1.37168 32.4018 1.37168 32.4031 1.37168C32.4045 1.37168 32.4059 1.37168 32.4073 1.37168C32.4086 1.37168 32.41 1.37168 32.4114 1.37168C32.4128 1.37168 32.4142 1.37168 32.4155 1.37168C32.4169 1.37168 32.4183 1.37168 32.4197 1.37168C32.4211 1.37168 32.4225 1.37168 32.4238 1.37168C32.4252 1.37168 32.4266 1.37168 32.428 1.37168C32.4294 1.37168 32.4307 1.37168 32.4321 1.37168C32.4335 1.37168 32.4349 1.37168 32.4363 1.37168C32.4377 1.37168 32.439 1.37168 32.4404 1.37168C32.4418 1.37168 32.4432 1.37168 32.4446 1.37168C32.446 1.37168 32.4474 1.37168 32.4487 1.37168C32.4501 1.37168 32.4515 1.37168 32.4529 1.37168C32.4543 1.37168 32.4557 1.37168 32.4571 1.37168C32.4585 1.37168 32.4598 1.37168 32.4612 1.37168C32.4626 1.37168 32.464 1.37168 32.4654 1.37168C32.4668 1.37168 32.4682 1.37168 32.4696 1.37168C32.471 1.37168 32.4724 1.37168 32.4737 1.37168C32.4751 1.37168 32.4765 1.37168 32.4779 1.37168C32.4793 1.37168 32.4807 1.37168 32.4821 1.37168C32.4835 1.37168 32.4849 1.37168 32.4863 1.37168C32.4877 1.37168 32.4891 1.37168 32.4905 1.37168C32.4919 1.37168 32.4932 1.37168 32.4946 1.37168C32.496 1.37168 32.4974 1.37168 32.4988 1.37168C32.5002 1.37168 32.5016 1.37168 32.503 1.37168C32.5044 1.37168 32.5058 1.37168 32.5072 1.37168C32.5086 1.37168 32.51 1.37168 32.5114 1.37168C32.5128 1.37168 32.5142 1.37168 32.5156 1.37168C32.517 1.37168 32.5184 1.37168 32.5198 1.37168C32.5212 1.37168 32.5226 1.37168 32.524 1.37168C32.5254 1.37168 32.5268 1.37168 32.5282 1.37168C32.5296 1.37168 32.531 1.37168 32.5324 1.37168C32.5338 1.37168 32.5352 1.37168 32.5366 1.37168C32.538 1.37168 32.5394 1.37168 32.5408 1.37168C32.5422 1.37168 32.5436 1.37168 32.545 1.37168C32.5464 1.37168 32.5478 1.37168 32.5493 1.37168C32.5507 1.37168 32.5521 1.37168 32.5535 1.37168C32.5549 1.37168 32.5563 1.37168 32.5577 1.37168C32.5591 1.37168 32.5605 1.37168 32.5619 1.37168C32.5633 1.37168 32.5647 1.37168 32.5661 1.37168C32.5675 1.37168 32.569 1.37168 32.5704 1.37168C32.5718 1.37168 32.5732 1.37168 32.5746 1.37168C32.576 1.37168 32.5774 1.37168 32.5788 1.37168C32.5802 1.37168 32.5816 1.37168 32.5831 1.37168C32.5845 1.37168 32.5859 1.37168 32.5873 1.37168C32.5887 1.37168 32.5901 1.37168 32.5915 1.37168C32.5929 1.37168 32.5944 1.37168 32.5958 1.37168C32.5972 1.37168 32.5986 1.37168 32.6 1.37168C32.6014 1.37168 32.6028 1.37168 32.6043 1.37168C32.6057 1.37168 32.6071 1.37168 32.6085 1.37168C32.6099 1.37168 32.6113 1.37168 32.6128 1.37168C32.6142 1.37168 32.6156 1.37168 32.617 1.37168C32.6184 1.37168 32.6198 1.37168 32.6213 1.37168C32.6227 1.37168 32.6241 1.37168 32.6255 1.37168C32.6269 1.37168 32.6284 1.37168 32.6298 1.37168C32.6312 1.37168 32.6326 1.37168 32.634 1.37168C32.6355 1.37168 32.6369 1.37168 32.6383 1.37168C32.6397 1.37168 32.6411 1.37168 32.6426 1.37168C32.644 1.37168 32.6454 1.37168 32.6468 1.37168C32.6483 1.37168 32.6497 1.37168 32.6511 1.37168C32.6525 1.37168 32.654 1.37168 32.6554 1.37168C32.6568 1.37168 32.6582 1.37168 32.6597 1.37168C32.6611 1.37168 32.6625 1.37168 32.6639 1.37168C32.6654 1.37168 32.6668 1.37168 32.6682 1.37168C32.6696 1.37168 32.6711 1.37168 32.6725 1.37168C32.6739 1.37168 32.6754 1.37168 32.6768 1.37168C32.6782 1.37168 32.6796 1.37168 32.6811 1.37168C32.6825 1.37168 32.6839 1.37168 32.6854 1.37168C32.6868 1.37168 32.6882 1.37168 32.6897 1.37168C32.6911 1.37168 32.6925 1.37168 32.6939 1.37168C32.6954 1.37168 32.6968 1.37168 32.6982 1.37168C32.6997 1.37168 32.7011 1.37168 32.7025 1.37168C32.704 1.37168 32.7054 1.37168 32.7068 1.37168C32.7083 1.37168 32.7097 1.37168 32.7112 1.37168C32.7126 1.37168 32.714 1.37168 32.7155 1.37168C32.7169 1.37168 32.7183 1.37168 32.7198 1.37168C32.7212 1.37168 32.7226 1.37168 32.7241 1.37168C32.7255 1.37168 32.727 1.37168 32.7284 1.37168C32.7298 1.37168 32.7313 1.37168 32.7327 1.37168C32.7341 1.37168 32.7356 1.37168 32.737 1.37168C32.7385 1.37168 32.7399 1.37168 32.7413 1.37168C32.7428 1.37168 32.7442 1.37168 32.7457 1.37168C32.7471 1.37168 32.7485 1.37168 32.75 1.37168C32.7514 1.37168 32.7529 1.37168 32.7543 1.37168C32.7558 1.37168 32.7572 1.37168 32.7586 1.37168C32.7601 1.37168 32.7615 1.37168 32.763 1.37168C32.7644 1.37168 32.7659 1.37168 32.7673 1.37168C32.7688 1.37168 32.7702 1.37168 32.7717 1.37168C32.7731 1.37168 32.7745 1.37168 32.776 1.37168C32.7774 1.37168 32.7789 1.37168 32.7803 1.37168C32.7818 1.37168 32.7832 1.37168 32.7847 1.37168C32.7861 1.37168 32.7876 1.37168 32.789 1.37168C32.7905 1.37168 32.7919 1.37168 32.7934 1.37168C32.7948 1.37168 32.7963 1.37168 32.7977 1.37168C32.7992 1.37168 32.8006 1.37168 32.8021 1.37168C32.8035 1.37168 32.805 1.37168 32.8064 1.37168C32.8079 1.37168 32.8093 1.37168 32.8108 1.37168C32.8122 1.37168 32.8137 1.37168 32.8151 1.37168C32.8166 1.37168 32.8181 1.37168 32.8195 1.37168C32.821 1.37168 32.8224 1.37168 32.8239 1.37168C32.8253 1.37168 32.8268 1.37168 32.8282 1.37168C32.8297 1.37168 32.8312 1.37168 32.8326 1.37168C32.8341 1.37168 32.8355 1.37168 32.837 1.37168C32.8384 1.37168 32.8399 1.37168 32.8414 1.37168C32.8428 1.37168 32.8443 1.37168 32.8457 1.37168C32.8472 1.37168 32.8487 1.37168 32.8501 1.37168C32.8516 1.37168 32.853 1.37168 32.8545 1.37168C32.856 1.37168 32.8574 1.37168 32.8589 1.37168C32.8603 1.37168 32.8618 1.37168 32.8633 1.37168C32.8647 1.37168 32.8662 1.37168 32.8677 1.37168C32.8691 1.37168 32.8706 1.37168 32.872 1.37168C32.8735 1.37168 32.875 1.37168 32.8764 1.37168C32.8779 1.37168 32.8794 1.37168 32.8808 1.37168C32.8823 1.37168 32.8838 1.37168 32.8852 1.37168C32.8867 1.37168 32.8882 1.37168 32.8896 1.37168C32.8911 1.37168 32.8926 1.37168 32.894 1.37168C32.8955 1.37168 32.897 1.37168 32.8984 1.37168V0.57168C32.897 0.57168 32.8955 0.57168 32.894 0.57168C32.8926 0.57168 32.8911 0.57168 32.8896 0.57168C32.8882 0.57168 32.8867 0.57168 32.8852 0.57168C32.8838 0.57168 32.8823 0.57168 32.8808 0.57168C32.8794 0.57168 32.8779 0.57168 32.8764 0.57168C32.875 0.57168 32.8735 0.57168 32.872 0.57168C32.8706 0.57168 32.8691 0.57168 32.8677 0.57168C32.8662 0.57168 32.8647 0.57168 32.8633 0.57168C32.8618 0.57168 32.8603 0.57168 32.8589 0.57168C32.8574 0.57168 32.856 0.57168 32.8545 0.57168C32.853 0.57168 32.8516 0.57168 32.8501 0.57168C32.8487 0.57168 32.8472 0.57168 32.8457 0.57168C32.8443 0.57168 32.8428 0.57168 32.8414 0.57168C32.8399 0.57168 32.8384 0.57168 32.837 0.57168C32.8355 0.57168 32.8341 0.57168 32.8326 0.57168C32.8312 0.57168 32.8297 0.57168 32.8282 0.57168C32.8268 0.57168 32.8253 0.57168 32.8239 0.57168C32.8224 0.57168 32.821 0.57168 32.8195 0.57168C32.8181 0.57168 32.8166 0.57168 32.8151 0.57168C32.8137 0.57168 32.8122 0.57168 32.8108 0.57168C32.8093 0.57168 32.8079 0.57168 32.8064 0.57168C32.805 0.57168 32.8035 0.57168 32.8021 0.57168C32.8006 0.57168 32.7992 0.57168 32.7977 0.57168C32.7963 0.57168 32.7948 0.57168 32.7934 0.57168C32.7919 0.57168 32.7905 0.57168 32.789 0.57168C32.7876 0.57168 32.7861 0.57168 32.7847 0.57168C32.7832 0.57168 32.7818 0.57168 32.7803 0.57168C32.7789 0.57168 32.7774 0.57168 32.776 0.57168C32.7745 0.57168 32.7731 0.57168 32.7717 0.57168C32.7702 0.57168 32.7688 0.57168 32.7673 0.57168C32.7659 0.57168 32.7644 0.57168 32.763 0.57168C32.7615 0.57168 32.7601 0.57168 32.7586 0.57168C32.7572 0.57168 32.7558 0.57168 32.7543 0.57168C32.7529 0.57168 32.7514 0.57168 32.75 0.57168C32.7485 0.57168 32.7471 0.57168 32.7457 0.57168C32.7442 0.57168 32.7428 0.57168 32.7413 0.57168C32.7399 0.57168 32.7385 0.57168 32.737 0.57168C32.7356 0.57168 32.7341 0.57168 32.7327 0.57168C32.7313 0.57168 32.7298 0.57168 32.7284 0.57168C32.727 0.57168 32.7255 0.57168 32.7241 0.57168C32.7226 0.57168 32.7212 0.57168 32.7198 0.57168C32.7183 0.57168 32.7169 0.57168 32.7155 0.57168C32.714 0.57168 32.7126 0.57168 32.7112 0.57168C32.7097 0.57168 32.7083 0.57168 32.7068 0.57168C32.7054 0.57168 32.704 0.57168 32.7025 0.57168C32.7011 0.57168 32.6997 0.57168 32.6982 0.57168C32.6968 0.57168 32.6954 0.57168 32.6939 0.57168C32.6925 0.57168 32.6911 0.57168 32.6897 0.57168C32.6882 0.57168 32.6868 0.57168 32.6854 0.57168C32.6839 0.57168 32.6825 0.57168 32.6811 0.57168C32.6796 0.57168 32.6782 0.57168 32.6768 0.57168C32.6754 0.57168 32.6739 0.57168 32.6725 0.57168C32.6711 0.57168 32.6696 0.57168 32.6682 0.57168C32.6668 0.57168 32.6654 0.57168 32.6639 0.57168C32.6625 0.57168 32.6611 0.57168 32.6597 0.57168C32.6582 0.57168 32.6568 0.57168 32.6554 0.57168C32.654 0.57168 32.6525 0.57168 32.6511 0.57168C32.6497 0.57168 32.6483 0.57168 32.6468 0.57168C32.6454 0.57168 32.644 0.57168 32.6426 0.57168C32.6411 0.57168 32.6397 0.57168 32.6383 0.57168C32.6369 0.57168 32.6355 0.57168 32.634 0.57168C32.6326 0.57168 32.6312 0.57168 32.6298 0.57168C32.6284 0.57168 32.6269 0.57168 32.6255 0.57168C32.6241 0.57168 32.6227 0.57168 32.6213 0.57168C32.6198 0.57168 32.6184 0.57168 32.617 0.57168C32.6156 0.57168 32.6142 0.57168 32.6128 0.57168C32.6113 0.57168 32.6099 0.57168 32.6085 0.57168C32.6071 0.57168 32.6057 0.57168 32.6043 0.57168C32.6028 0.57168 32.6014 0.57168 32.6 0.57168C32.5986 0.57168 32.5972 0.57168 32.5958 0.57168C32.5944 0.57168 32.5929 0.57168 32.5915 0.57168C32.5901 0.57168 32.5887 0.57168 32.5873 0.57168C32.5859 0.57168 32.5845 0.57168 32.5831 0.57168C32.5816 0.57168 32.5802 0.57168 32.5788 0.57168C32.5774 0.57168 32.576 0.57168 32.5746 0.57168C32.5732 0.57168 32.5718 0.57168 32.5704 0.57168C32.569 0.57168 32.5675 0.57168 32.5661 0.57168C32.5647 0.57168 32.5633 0.57168 32.5619 0.57168C32.5605 0.57168 32.5591 0.57168 32.5577 0.57168C32.5563 0.57168 32.5549 0.57168 32.5535 0.57168C32.5521 0.57168 32.5507 0.57168 32.5493 0.57168C32.5478 0.57168 32.5464 0.57168 32.545 0.57168C32.5436 0.57168 32.5422 0.57168 32.5408 0.57168C32.5394 0.57168 32.538 0.57168 32.5366 0.57168C32.5352 0.57168 32.5338 0.57168 32.5324 0.57168C32.531 0.57168 32.5296 0.57168 32.5282 0.57168C32.5268 0.57168 32.5254 0.57168 32.524 0.57168C32.5226 0.57168 32.5212 0.57168 32.5198 0.57168C32.5184 0.57168 32.517 0.57168 32.5156 0.57168C32.5142 0.57168 32.5128 0.57168 32.5114 0.57168C32.51 0.57168 32.5086 0.57168 32.5072 0.57168C32.5058 0.57168 32.5044 0.57168 32.503 0.57168C32.5016 0.57168 32.5002 0.57168 32.4988 0.57168C32.4974 0.57168 32.496 0.57168 32.4946 0.57168C32.4932 0.57168 32.4919 0.57168 32.4905 0.57168C32.4891 0.57168 32.4877 0.57168 32.4863 0.57168C32.4849 0.57168 32.4835 0.57168 32.4821 0.57168C32.4807 0.57168 32.4793 0.57168 32.4779 0.57168C32.4765 0.57168 32.4751 0.57168 32.4737 0.57168C32.4724 0.57168 32.471 0.57168 32.4696 0.57168C32.4682 0.57168 32.4668 0.57168 32.4654 0.57168C32.464 0.57168 32.4626 0.57168 32.4612 0.57168C32.4598 0.57168 32.4585 0.57168 32.4571 0.57168C32.4557 0.57168 32.4543 0.57168 32.4529 0.57168C32.4515 0.57168 32.4501 0.57168 32.4487 0.57168C32.4474 0.57168 32.446 0.57168 32.4446 0.57168C32.4432 0.57168 32.4418 0.57168 32.4404 0.57168C32.439 0.57168 32.4377 0.57168 32.4363 0.57168C32.4349 0.57168 32.4335 0.57168 32.4321 0.57168C32.4307 0.57168 32.4294 0.57168 32.428 0.57168C32.4266 0.57168 32.4252 0.57168 32.4238 0.57168C32.4225 0.57168 32.4211 0.57168 32.4197 0.57168C32.4183 0.57168 32.4169 0.57168 32.4155 0.57168C32.4142 0.57168 32.4128 0.57168 32.4114 0.57168C32.41 0.57168 32.4086 0.57168 32.4073 0.57168C32.4059 0.57168 32.4045 0.57168 32.4031 0.57168C32.4018 0.57168 32.4004 0.57168 32.399 0.57168C32.3976 0.57168 32.3962 0.57168 32.3949 0.57168C32.3935 0.57168 32.3921 0.57168 32.3907 0.57168C32.3894 0.57168 32.388 0.57168 32.3866 0.57168C32.3852 0.57168 32.3839 0.57168 32.3825 0.57168C32.3811 0.57168 32.3797 0.57168 32.3784 0.57168C32.377 0.57168 32.3756 0.57168 32.3743 0.57168C32.3729 0.57168 32.3715 0.57168 32.3701 0.57168C32.3688 0.57168 32.3674 0.57168 32.366 0.57168C32.3647 0.57168 32.3633 0.57168 32.3619 0.57168C32.3605 0.57168 32.3592 0.57168 32.3578 0.57168C32.3564 0.57168 32.3551 0.57168 32.3537 0.57168C32.3523 0.57168 32.351 0.57168 32.3496 0.57168C32.3482 0.57168 32.3469 0.57168 32.3455 0.57168C32.3441 0.57168 32.3428 0.57168 32.3414 0.57168C32.34 0.57168 32.3387 0.57168 32.3373 0.57168C32.3359 0.57168 32.3346 0.57168 32.3332 0.57168C32.3318 0.57168 32.3305 0.57168 32.3291 0.57168C32.3277 0.57168 32.3264 0.57168 32.325 0.57168C32.3237 0.57168 32.3223 0.57168 32.3209 0.57168C32.3196 0.57168 32.3182 0.57168 32.3168 0.57168C32.3155 0.57168 32.3141 0.57168 32.3128 0.57168C32.3114 0.57168 32.31 0.57168 32.3087 0.57168C32.3073 0.57168 32.306 0.57168 32.3046 0.57168C32.3032 0.57168 32.3019 0.57168 32.3005 0.57168C32.2992 0.57168 32.2978 0.57168 32.2965 0.57168C32.2951 0.57168 32.2937 0.57168 32.2924 0.57168C32.291 0.57168 32.2897 0.57168 32.2883 0.57168C32.287 0.57168 32.2856 0.57168 32.2842 0.57168C32.2829 0.57168 32.2815 0.57168 32.2802 0.57168C32.2788 0.57168 32.2775 0.57168 32.2761 0.57168C32.2748 0.57168 32.2734 0.57168 32.2721 0.57168C32.2707 0.57168 32.2694 0.57168 32.268 0.57168C32.2666 0.57168 32.2653 0.57168 32.2639 0.57168C32.2626 0.57168 32.2612 0.57168 32.2599 0.57168C32.2585 0.57168 32.2572 0.57168 32.2558 0.57168C32.2545 0.57168 32.2531 0.57168 32.2518 0.57168C32.2504 0.57168 32.2491 0.57168 32.2477 0.57168C32.2464 0.57168 32.2451 0.57168 32.2437 0.57168C32.2424 0.57168 32.241 0.57168 32.2397 0.57168C32.2383 0.57168 32.237 0.57168 32.2356 0.57168C32.2343 0.57168 32.2329 0.57168 32.2316 0.57168C32.2302 0.57168 32.2289 0.57168 32.2276 0.57168C32.2262 0.57168 32.2249 0.57168 32.2235 0.57168C32.2222 0.57168 32.2208 0.57168 32.2195 0.57168C32.2182 0.57168 32.2168 0.57168 32.2155 0.57168C32.2141 0.57168 32.2128 0.57168 32.2114 0.57168C32.2101 0.57168 32.2088 0.57168 32.2074 0.57168C32.2061 0.57168 32.2047 0.57168 32.2034 0.57168C32.2021 0.57168 32.2007 0.57168 32.1994 0.57168C32.198 0.57168 32.1967 0.57168 32.1954 0.57168C32.194 0.57168 32.1927 0.57168 32.1914 0.57168C32.19 0.57168 32.1887 0.57168 32.1873 0.57168C32.186 0.57168 32.1847 0.57168 32.1833 0.57168C32.182 0.57168 32.1807 0.57168 32.1793 0.57168C32.178 0.57168 32.1767 0.57168 32.1753 0.57168C32.174 0.57168 32.1727 0.57168 32.1713 0.57168C32.17 0.57168 32.1687 0.57168 32.1673 0.57168C32.166 0.57168 32.1647 0.57168 32.1633 0.57168C32.162 0.57168 32.1607 0.57168 32.1593 0.57168C32.158 0.57168 32.1567 0.57168 32.1553 0.57168C32.154 0.57168 32.1527 0.57168 32.1514 0.57168C32.15 0.57168 32.1487 0.57168 32.1474 0.57168C32.146 0.57168 32.1447 0.57168 32.1434 0.57168C32.1421 0.57168 32.1407 0.57168 32.1394 0.57168C32.1381 0.57168 32.1367 0.57168 32.1354 0.57168C32.1341 0.57168 32.1328 0.57168 32.1314 0.57168C32.1301 0.57168 32.1288 0.57168 32.1275 0.57168C32.1261 0.57168 32.1248 0.57168 32.1235 0.57168C32.1222 0.57168 32.1208 0.57168 32.1195 0.57168C32.1182 0.57168 32.1169 0.57168 32.1156 0.57168C32.1142 0.57168 32.1129 0.57168 32.1116 0.57168C32.1103 0.57168 32.1089 0.57168 32.1076 0.57168C32.1063 0.57168 32.105 0.57168 32.1037 0.57168C32.1023 0.57168 32.101 0.57168 32.0997 0.57168C32.0984 0.57168 32.0971 0.57168 32.0957 0.57168C32.0944 0.57168 32.0931 0.57168 32.0918 0.57168C32.0905 0.57168 32.0892 0.57168 32.0878 0.57168C32.0865 0.57168 32.0852 0.57168 32.0839 0.57168C32.0826 0.57168 32.0813 0.57168 32.0799 0.57168C32.0786 0.57168 32.0773 0.57168 32.076 0.57168C32.0747 0.57168 32.0734 0.57168 32.0721 0.57168C32.0707 0.57168 32.0694 0.57168 32.0681 0.57168C32.0668 0.57168 32.0655 0.57168 32.0642 0.57168C32.0629 0.57168 32.0616 0.57168 32.0602 0.57168C32.0589 0.57168 32.0576 0.57168 32.0563 0.57168C32.055 0.57168 32.0537 0.57168 32.0524 0.57168C32.0511 0.57168 32.0498 0.57168 32.0485 0.57168C32.0471 0.57168 32.0458 0.57168 32.0445 0.57168C32.0432 0.57168 32.0419 0.57168 32.0406 0.57168C32.0393 0.57168 32.038 0.57168 32.0367 0.57168C32.0354 0.57168 32.0341 0.57168 32.0328 0.57168C32.0315 0.57168 32.0302 0.57168 32.0288 0.57168C32.0275 0.57168 32.0262 0.57168 32.0249 0.57168C32.0236 0.57168 32.0223 0.57168 32.021 0.57168C32.0197 0.57168 32.0184 0.57168 32.0171 0.57168C32.0158 0.57168 32.0145 0.57168 32.0132 0.57168C32.0119 0.57168 32.0106 0.57168 32.0093 0.57168C32.008 0.57168 32.0067 0.57168 32.0054 0.57168C32.0041 0.57168 32.0028 0.57168 32.0015 0.57168C32.0002 0.57168 31.9989 0.57168 31.9976 0.57168C31.9963 0.57168 31.995 0.57168 31.9937 0.57168C31.9924 0.57168 31.9911 0.57168 31.9898 0.57168C31.9885 0.57168 31.9872 0.57168 31.9859 0.57168C31.9846 0.57168 31.9833 0.57168 31.982 0.57168C31.9807 0.57168 31.9794 0.57168 31.9781 0.57168C31.9768 0.57168 31.9756 0.57168 31.9743 0.57168C31.973 0.57168 31.9717 0.57168 31.9704 0.57168C31.9691 0.57168 31.9678 0.57168 31.9665 0.57168C31.9652 0.57168 31.9639 0.57168 31.9626 0.57168C31.9613 0.57168 31.96 0.57168 31.9587 0.57168C31.9575 0.57168 31.9562 0.57168 31.9549 0.57168C31.9536 0.57168 31.9523 0.57168 31.951 0.57168C31.9497 0.57168 31.9484 0.57168 31.9471 0.57168C31.9459 0.57168 31.9446 0.57168 31.9433 0.57168C31.942 0.57168 31.9407 0.57168 31.9394 0.57168C31.9381 0.57168 31.9368 0.57168 31.9356 0.57168C31.9343 0.57168 31.933 0.57168 31.9317 0.57168C31.9304 0.57168 31.9291 0.57168 31.9278 0.57168C31.9266 0.57168 31.9253 0.57168 31.924 0.57168C31.9227 0.57168 31.9214 0.57168 31.9201 0.57168C31.9189 0.57168 31.9176 0.57168 31.9163 0.57168C31.915 0.57168 31.9137 0.57168 31.9124 0.57168C31.9112 0.57168 31.9099 0.57168 31.9086 0.57168C31.9073 0.57168 31.906 0.57168 31.9048 0.57168C31.9035 0.57168 31.9022 0.57168 31.9009 0.57168C31.8996 0.57168 31.8984 0.57168 31.8971 0.57168C31.8958 0.57168 31.8945 0.57168 31.8932 0.57168C31.892 0.57168 31.8907 0.57168 31.8894 0.57168C31.8881 0.57168 31.8869 0.57168 31.8856 0.57168C31.8843 0.57168 31.883 0.57168 31.8818 0.57168C31.8805 0.57168 31.8792 0.57168 31.8779 0.57168C31.8767 0.57168 31.8754 0.57168 31.8741 0.57168C31.8728 0.57168 31.8716 0.57168 31.8703 0.57168C31.869 0.57168 31.8677 0.57168 31.8665 0.57168C31.8652 0.57168 31.8639 0.57168 31.8627 0.57168C31.8614 0.57168 31.8601 0.57168 31.8588 0.57168C31.8576 0.57168 31.8563 0.57168 31.855 0.57168C31.8538 0.57168 31.8525 0.57168 31.8512 0.57168C31.8499 0.57168 31.8487 0.57168 31.8474 0.57168C31.8461 0.57168 31.8449 0.57168 31.8436 0.57168C31.8423 0.57168 31.8411 0.57168 31.8398 0.57168C31.8385 0.57168 31.8373 0.57168 31.836 0.57168C31.8347 0.57168 31.8335 0.57168 31.8322 0.57168C31.8309 0.57168 31.8297 0.57168 31.8284 0.57168C31.8272 0.57168 31.8259 0.57168 31.8246 0.57168C31.8234 0.57168 31.8221 0.57168 31.8208 0.57168C31.8196 0.57168 31.8183 0.57168 31.817 0.57168C31.8158 0.57168 31.8145 0.57168 31.8133 0.57168C31.812 0.57168 31.8107 0.57168 31.8095 0.57168C31.8082 0.57168 31.807 0.57168 31.8057 0.57168C31.8044 0.57168 31.8032 0.57168 31.8019 0.57168C31.8007 0.57168 31.7994 0.57168 31.7981 0.57168C31.7969 0.57168 31.7956 0.57168 31.7944 0.57168C31.7931 0.57168 31.7919 0.57168 31.7906 0.57168C31.7893 0.57168 31.7881 0.57168 31.7868 0.57168C31.7856 0.57168 31.7843 0.57168 31.7831 0.57168C31.7818 0.57168 31.7806 0.57168 31.7793 0.57168C31.778 0.57168 31.7768 0.57168 31.7755 0.57168C31.7743 0.57168 31.773 0.57168 31.7718 0.57168C31.7705 0.57168 31.7693 0.57168 31.768 0.57168C31.7668 0.57168 31.7655 0.57168 31.7643 0.57168C31.763 0.57168 31.7618 0.57168 31.7605 0.57168C31.7593 0.57168 31.758 0.57168 31.7568 0.57168C31.7555 0.57168 31.7543 0.57168 31.753 0.57168C31.7518 0.57168 31.7505 0.57168 31.7493 0.57168C31.748 0.57168 31.7468 0.57168 31.7455 0.57168C31.7443 0.57168 31.743 0.57168 31.7418 0.57168C31.7405 0.57168 31.7393 0.57168 31.738 0.57168C31.7368 0.57168 31.7356 0.57168 31.7343 0.57168C31.7331 0.57168 31.7318 0.57168 31.7306 0.57168C31.7293 0.57168 31.7281 0.57168 31.7268 0.57168C31.7256 0.57168 31.7244 0.57168 31.7231 0.57168C31.7219 0.57168 31.7206 0.57168 31.7194 0.57168C31.7182 0.57168 31.7169 0.57168 31.7157 0.57168C31.7144 0.57168 31.7132 0.57168 31.7119 0.57168C31.7107 0.57168 31.7095 0.57168 31.7082 0.57168C31.707 0.57168 31.7057 0.57168 31.7045 0.57168C31.7033 0.57168 31.702 0.57168 31.7008 0.57168C31.6996 0.57168 31.6983 0.57168 31.6971 0.57168C31.6958 0.57168 31.6946 0.57168 31.6934 0.57168C31.6921 0.57168 31.6909 0.57168 31.6897 0.57168C31.6884 0.57168 31.6872 0.57168 31.686 0.57168C31.6847 0.57168 31.6835 0.57168 31.6823 0.57168C31.681 0.57168 31.6798 0.57168 31.6786 0.57168C31.6773 0.57168 31.6761 0.57168 31.6749 0.57168C31.6736 0.57168 31.6724 0.57168 31.6712 0.57168C31.6699 0.57168 31.6687 0.57168 31.6675 0.57168C31.6662 0.57168 31.665 0.57168 31.6638 0.57168C31.6625 0.57168 31.6613 0.57168 31.6601 0.57168C31.6589 0.57168 31.6576 0.57168 31.6564 0.57168C31.6552 0.57168 31.6539 0.57168 31.6527 0.57168C31.6515 0.57168 31.6503 0.57168 31.649 0.57168C31.6478 0.57168 31.6466 0.57168 31.6454 0.57168C31.6441 0.57168 31.6429 0.57168 31.6417 0.57168C31.6405 0.57168 31.6392 0.57168 31.638 0.57168C31.6368 0.57168 31.6356 0.57168 31.6343 0.57168C31.6331 0.57168 31.6319 0.57168 31.6307 0.57168C31.6294 0.57168 31.6282 0.57168 31.627 0.57168C31.6258 0.57168 31.6245 0.57168 31.6233 0.57168C31.6221 0.57168 31.6209 0.57168 31.6197 0.57168C31.6184 0.57168 31.6172 0.57168 31.616 0.57168C31.6148 0.57168 31.6136 0.57168 31.6123 0.57168C31.6111 0.57168 31.6099 0.57168 31.6087 0.57168C31.6075 0.57168 31.6063 0.57168 31.605 0.57168C31.6038 0.57168 31.6026 0.57168 31.6014 0.57168C31.6002 0.57168 31.599 0.57168 31.5977 0.57168C31.5965 0.57168 31.5953 0.57168 31.5941 0.57168C31.5929 0.57168 31.5917 0.57168 31.5904 0.57168C31.5892 0.57168 31.588 0.57168 31.5868 0.57168C31.5856 0.57168 31.5844 0.57168 31.5832 0.57168C31.5819 0.57168 31.5807 0.57168 31.5795 0.57168C31.5783 0.57168 31.5771 0.57168 31.5759 0.57168C31.5747 0.57168 31.5735 0.57168 31.5723 0.57168C31.571 0.57168 31.5698 0.57168 31.5686 0.57168C31.5674 0.57168 31.5662 0.57168 31.565 0.57168C31.5638 0.57168 31.5626 0.57168 31.5614 0.57168C31.5602 0.57168 31.559 0.57168 31.5577 0.57168C31.5565 0.57168 31.5553 0.57168 31.5541 0.57168C31.5529 0.57168 31.5517 0.57168 31.5505 0.57168C31.5493 0.57168 31.5481 0.57168 31.5469 0.57168C31.5457 0.57168 31.5445 0.57168 31.5433 0.57168C31.5421 0.57168 31.5409 0.57168 31.5397 0.57168C31.5385 0.57168 31.5373 0.57168 31.5361 0.57168C31.5349 0.57168 31.5337 0.57168 31.5325 0.57168C31.5312 0.57168 31.53 0.57168 31.5288 0.57168C31.5276 0.57168 31.5264 0.57168 31.5252 0.57168C31.524 0.57168 31.5228 0.57168 31.5216 0.57168C31.5204 0.57168 31.5192 0.57168 31.518 0.57168C31.5168 0.57168 31.5157 0.57168 31.5145 0.57168C31.5133 0.57168 31.5121 0.57168 31.5109 0.57168C31.5097 0.57168 31.5085 0.57168 31.5073 0.57168C31.5061 0.57168 31.5049 0.57168 31.5037 0.57168C31.5025 0.57168 31.5013 0.57168 31.5001 0.57168C31.4989 0.57168 31.4977 0.57168 31.4965 0.57168C31.4953 0.57168 31.4941 0.57168 31.4929 0.57168C31.4917 0.57168 31.4905 0.57168 31.4894 0.57168C31.4882 0.57168 31.487 0.57168 31.4858 0.57168C31.4846 0.57168 31.4834 0.57168 31.4822 0.57168C31.481 0.57168 31.4798 0.57168 31.4786 0.57168C31.4774 0.57168 31.4763 0.57168 31.4751 0.57168C31.4739 0.57168 31.4727 0.57168 31.4715 0.57168C31.4703 0.57168 31.4691 0.57168 31.4679 0.57168C31.4667 0.57168 31.4656 0.57168 31.4644 0.57168C31.4632 0.57168 31.462 0.57168 31.4608 0.57168C31.4596 0.57168 31.4584 0.57168 31.4573 0.57168C31.4561 0.57168 31.4549 0.57168 31.4537 0.57168C31.4525 0.57168 31.4513 0.57168 31.4501 0.57168C31.449 0.57168 31.4478 0.57168 31.4466 0.57168C31.4454 0.57168 31.4442 0.57168 31.443 0.57168C31.4419 0.57168 31.4407 0.57168 31.4395 0.57168C31.4383 0.57168 31.4371 0.57168 31.436 0.57168C31.4348 0.57168 31.4336 0.57168 31.4324 0.57168C31.4312 0.57168 31.4301 0.57168 31.4289 0.57168C31.4277 0.57168 31.4265 0.57168 31.4253 0.57168C31.4242 0.57168 31.423 0.57168 31.4218 0.57168C31.4206 0.57168 31.4194 0.57168 31.4183 0.57168C31.4171 0.57168 31.4159 0.57168 31.4147 0.57168C31.4136 0.57168 31.4124 0.57168 31.4112 0.57168C31.41 0.57168 31.4089 0.57168 31.4077 0.57168C31.4065 0.57168 31.4053 0.57168 31.4042 0.57168C31.403 0.57168 31.4018 0.57168 31.4006 0.57168C31.3995 0.57168 31.3983 0.57168 31.3971 0.57168C31.396 0.57168 31.3948 0.57168 31.3936 0.57168C31.3924 0.57168 31.3913 0.57168 31.3901 0.57168C31.3889 0.57168 31.3878 0.57168 31.3866 0.57168C31.3854 0.57168 31.3843 0.57168 31.3831 0.57168C31.3819 0.57168 31.3807 0.57168 31.3796 0.57168C31.3784 0.57168 31.3772 0.57168 31.3761 0.57168C31.3749 0.57168 31.3737 0.57168 31.3726 0.57168C31.3714 0.57168 31.3702 0.57168 31.3691 0.57168C31.3679 0.57168 31.3667 0.57168 31.3656 0.57168C31.3644 0.57168 31.3632 0.57168 31.3621 0.57168C31.3609 0.57168 31.3598 0.57168 31.3586 0.57168C31.3574 0.57168 31.3563 0.57168 31.3551 0.57168C31.3539 0.57168 31.3528 0.57168 31.3516 0.57168C31.3505 0.57168 31.3493 0.57168 31.3481 0.57168C31.347 0.57168 31.3458 0.57168 31.3446 0.57168C31.3435 0.57168 31.3423 0.57168 31.3412 0.57168C31.34 0.57168 31.3388 0.57168 31.3377 0.57168C31.3365 0.57168 31.3354 0.57168 31.3342 0.57168C31.3331 0.57168 31.3319 0.57168 31.3307 0.57168C31.3296 0.57168 31.3284 0.57168 31.3273 0.57168C31.3261 0.57168 31.325 0.57168 31.3238 0.57168C31.3226 0.57168 31.3215 0.57168 31.3203 0.57168C31.3192 0.57168 31.318 0.57168 31.3169 0.57168C31.3157 0.57168 31.3146 0.57168 31.3134 0.57168C31.3123 0.57168 31.3111 0.57168 31.31 0.57168C31.3088 0.57168 31.3076 0.57168 31.3065 0.57168C31.3053 0.57168 31.3042 0.57168 31.303 0.57168C31.3019 0.57168 31.3007 0.57168 31.2996 0.57168C31.2984 0.57168 31.2973 0.57168 31.2961 0.57168C31.295 0.57168 31.2938 0.57168 31.2927 0.57168C31.2915 0.57168 31.2904 0.57168 31.2892 0.57168C31.2881 0.57168 31.287 0.57168 31.2858 0.57168C31.2847 0.57168 31.2835 0.57168 31.2824 0.57168C31.2812 0.57168 31.2801 0.57168 31.2789 0.57168C31.2778 0.57168 31.2766 0.57168 31.2755 0.57168C31.2743 0.57168 31.2732 0.57168 31.2721 0.57168C31.2709 0.57168 31.2698 0.57168 31.2686 0.57168C31.2675 0.57168 31.2663 0.57168 31.2652 0.57168C31.2641 0.57168 31.2629 0.57168 31.2618 0.57168C31.2606 0.57168 31.2595 0.57168 31.2583 0.57168C31.2572 0.57168 31.2561 0.57168 31.2549 0.57168C31.2538 0.57168 31.2526 0.57168 31.2515 0.57168C31.2504 0.57168 31.2492 0.57168 31.2481 0.57168C31.247 0.57168 31.2458 0.57168 31.2447 0.57168C31.2435 0.57168 31.2424 0.57168 31.2413 0.57168C31.2401 0.57168 31.239 0.57168 31.2379 0.57168C31.2367 0.57168 31.2356 0.57168 31.2344 0.57168C31.2333 0.57168 31.2322 0.57168 31.231 0.57168C31.2299 0.57168 31.2288 0.57168 31.2276 0.57168C31.2265 0.57168 31.2254 0.57168 31.2242 0.57168C31.2231 0.57168 31.222 0.57168 31.2208 0.57168C31.2197 0.57168 31.2186 0.57168 31.2174 0.57168C31.2163 0.57168 31.2152 0.57168 31.2141 0.57168C31.2129 0.57168 31.2118 0.57168 31.2107 0.57168C31.2095 0.57168 31.2084 0.57168 31.2073 0.57168C31.2061 0.57168 31.205 0.57168 31.2039 0.57168C31.2028 0.57168 31.2016 0.57168 31.2005 0.57168C31.1994 0.57168 31.1982 0.57168 31.1971 0.57168C31.196 0.57168 31.1949 0.57168 31.1937 0.57168C31.1926 0.57168 31.1915 0.57168 31.1904 0.57168C31.1892 0.57168 31.1881 0.57168 31.187 0.57168C31.1859 0.57168 31.1847 0.57168 31.1836 0.57168C31.1825 0.57168 31.1814 0.57168 31.1802 0.57168C31.1791 0.57168 31.178 0.57168 31.1769 0.57168C31.1758 0.57168 31.1746 0.57168 31.1735 0.57168C31.1724 0.57168 31.1713 0.57168 31.1702 0.57168C31.169 0.57168 31.1679 0.57168 31.1668 0.57168C31.1657 0.57168 31.1646 0.57168 31.1634 0.57168C31.1623 0.57168 31.1612 0.57168 31.1601 0.57168C31.159 0.57168 31.1578 0.57168 31.1567 0.57168C31.1556 0.57168 31.1545 0.57168 31.1534 0.57168C31.1523 0.57168 31.1511 0.57168 31.15 0.57168C31.1489 0.57168 31.1478 0.57168 31.1467 0.57168C31.1456 0.57168 31.1445 0.57168 31.1433 0.57168C31.1422 0.57168 31.1411 0.57168 31.14 0.57168C31.1389 0.57168 31.1378 0.57168 31.1367 0.57168C31.1355 0.57168 31.1344 0.57168 31.1333 0.57168C31.1322 0.57168 31.1311 0.57168 31.13 0.57168C31.1289 0.57168 31.1278 0.57168 31.1267 0.57168C31.1255 0.57168 31.1244 0.57168 31.1233 0.57168C31.1222 0.57168 31.1211 0.57168 31.12 0.57168C31.1189 0.57168 31.1178 0.57168 31.1167 0.57168C31.1156 0.57168 31.1145 0.57168 31.1133 0.57168C31.1122 0.57168 31.1111 0.57168 31.11 0.57168C31.1089 0.57168 31.1078 0.57168 31.1067 0.57168C31.1056 0.57168 31.1045 0.57168 31.1034 0.57168C31.1023 0.57168 31.1012 0.57168 31.1001 0.57168C31.099 0.57168 31.0979 0.57168 31.0968 0.57168C31.0957 0.57168 31.0946 0.57168 31.0935 0.57168C31.0924 0.57168 31.0913 0.57168 31.0902 0.57168C31.0891 0.57168 31.0879 0.57168 31.0868 0.57168C31.0857 0.57168 31.0846 0.57168 31.0835 0.57168C31.0824 0.57168 31.0813 0.57168 31.0802 0.57168C31.0791 0.57168 31.078 0.57168 31.0769 0.57168C31.0759 0.57168 31.0748 0.57168 31.0737 0.57168C31.0726 0.57168 31.0715 0.57168 31.0704 0.57168C31.0693 0.57168 31.0682 0.57168 31.0671 0.57168C31.066 0.57168 31.0649 0.57168 31.0638 0.57168C31.0627 0.57168 31.0616 0.57168 31.0605 0.57168C31.0594 0.57168 31.0583 0.57168 31.0572 0.57168C31.0561 0.57168 31.055 0.57168 31.0539 0.57168C31.0528 0.57168 31.0518 0.57168 31.0507 0.57168C31.0496 0.57168 31.0485 0.57168 31.0474 0.57168C31.0463 0.57168 31.0452 0.57168 31.0441 0.57168C31.043 0.57168 31.0419 0.57168 31.0408 0.57168C31.0397 0.57168 31.0387 0.57168 31.0376 0.57168C31.0365 0.57168 31.0354 0.57168 31.0343 0.57168C31.0332 0.57168 31.0321 0.57168 31.031 0.57168C31.0299 0.57168 31.0289 0.57168 31.0278 0.57168C31.0267 0.57168 31.0256 0.57168 31.0245 0.57168C31.0234 0.57168 31.0223 0.57168 31.0213 0.57168C31.0202 0.57168 31.0191 0.57168 31.018 0.57168C31.0169 0.57168 31.0158 0.57168 31.0148 0.57168C31.0137 0.57168 31.0126 0.57168 31.0115 0.57168C31.0104 0.57168 31.0093 0.57168 31.0083 0.57168C31.0072 0.57168 31.0061 0.57168 31.005 0.57168C31.0039 0.57168 31.0028 0.57168 31.0018 0.57168C31.0007 0.57168 30.9996 0.57168 30.9985 0.57168C30.9974 0.57168 30.9964 0.57168 30.9953 0.57168C30.9942 0.57168 30.9931 0.57168 30.9921 0.57168C30.991 0.57168 30.9899 0.57168 30.9888 0.57168C30.9877 0.57168 30.9867 0.57168 30.9856 0.57168C30.9845 0.57168 30.9834 0.57168 30.9824 0.57168C30.9813 0.57168 30.9802 0.57168 30.9791 0.57168C30.9781 0.57168 30.977 0.57168 30.9759 0.57168C30.9748 0.57168 30.9738 0.57168 30.9727 0.57168C30.9716 0.57168 30.9705 0.57168 30.9695 0.57168C30.9684 0.57168 30.9673 0.57168 30.9662 0.57168C30.9652 0.57168 30.9641 0.57168 30.963 0.57168C30.962 0.57168 30.9609 0.57168 30.9598 0.57168C30.9587 0.57168 30.9577 0.57168 30.9566 0.57168C30.9555 0.57168 30.9545 0.57168 30.9534 0.57168C30.9523 0.57168 30.9513 0.57168 30.9502 0.57168V1.37168ZM32.5297 0.816696C31.8677 2.3918 31.3301 3.72997 30.9175 4.83025L31.6665 5.11115C32.0742 4.02394 32.6076 2.69609 33.2672 1.12666L32.5297 0.816696ZM30.9184 4.82764C30.5069 5.90212 30.1852 6.79811 29.9543 7.51392L30.7156 7.75952C30.9405 7.06256 31.2567 6.18121 31.6655 5.11376L30.9184 4.82764ZM29.9524 7.51983C29.7002 8.34525 29.5144 9.02912 29.3972 9.56835L30.179 9.73829C30.2896 9.22934 30.4684 8.56882 30.7175 7.75361L29.9524 7.51983ZM29.394 9.58478C29.3031 10.1075 29.1893 10.7445 29.0527 11.4958L29.8398 11.6389C29.9767 10.8864 30.0908 10.2473 30.1822 9.72186L29.394 9.58478ZM29.0521 11.4994C28.9394 12.1531 28.7811 12.9564 28.5767 13.9103L29.3589 14.078C29.5646 13.1178 29.7253 12.3033 29.8405 11.6353L29.0521 11.4994ZM28.5767 13.9103C28.3707 14.8713 28.1422 16.0139 27.8912 17.3376L28.6772 17.4866C28.9274 16.1671 29.1547 15.031 29.3589 14.078L28.5767 13.9103ZM28.3023 17.0125L25.2945 16.8758L25.2582 17.675L28.266 17.8117L28.3023 17.0125ZM25.6719 17.3351C25.855 16.1219 25.9817 15.0868 26.051 14.2315L25.2537 14.1669C25.1863 14.9978 25.0623 16.0135 24.8808 17.2157L25.6719 17.3351ZM26.0511 14.2307C26.1195 13.3649 26.1764 12.6473 26.222 12.0778L25.4245 12.014C25.3789 12.5839 25.3219 13.3018 25.2536 14.1677L26.0511 14.2307ZM26.2223 12.0734C26.2682 11.4077 26.2916 10.8508 26.2916 10.4053H25.4916C25.4916 10.8256 25.4694 11.3625 25.4242 12.0184L26.2223 12.0734ZM26.2916 10.4053C26.2916 9.93399 26.2565 9.23821 26.1879 8.32458L25.3902 8.38441C25.4584 9.29369 25.4916 9.96509 25.4916 10.4053H26.2916ZM26.1883 8.33029C26.1426 7.57626 26.0742 6.56064 25.983 5.284L25.185 5.341C25.2761 6.61645 25.3443 7.62882 25.3898 8.37869L26.1883 8.33029ZM25.983 5.2845C25.8917 3.98396 25.7663 2.33059 25.6067 0.324727L24.8093 0.388163C24.9687 2.39272 25.0939 4.04339 25.185 5.3405L25.983 5.2845ZM28.6303 20.2245C28.7515 20.4149 28.8238 20.6348 28.8422 20.8928L29.6402 20.8358C29.613 20.4557 29.5031 20.1059 29.3052 19.795L28.6303 20.2245ZM28.8459 20.9251C28.8818 21.1584 28.8653 21.4077 28.7882 21.6772L29.5575 21.897C29.6627 21.5285 29.6918 21.1625 29.6366 20.8034L28.8459 20.9251ZM28.7831 21.6972C28.7311 21.9227 28.6158 22.152 28.4212 22.3855L29.0358 22.8977C29.297 22.5843 29.4779 22.244 29.5626 21.8771L28.7831 21.6972ZM28.4085 22.4016C28.2512 22.6113 28.0255 22.7881 27.7137 22.9246L28.0344 23.6575C28.4517 23.4749 28.7957 23.2187 29.0485 22.8816L28.4085 22.4016ZM27.7042 22.9288C27.0304 23.2447 26.4823 23.3049 26.0336 23.1793L25.8179 23.9496C26.5086 24.143 27.2593 24.0209 28.0438 23.6532L27.7042 22.9288ZM26.0477 23.1835C25.5453 23.0227 25.2071 22.7736 24.994 22.4539L24.3283 22.8977C24.6621 23.3983 25.1669 23.7416 25.8039 23.9454L26.0477 23.1835ZM24.9888 22.4464C24.8693 22.2757 24.8031 22.0925 24.7863 21.8906L23.9891 21.957C24.0178 22.302 24.1339 22.6202 24.3334 22.9052L24.9888 22.4464ZM24.7877 21.9238C24.7877 21.6804 24.8342 21.4479 24.9278 21.2232L24.1894 20.9155C24.0551 21.2377 23.9877 21.5748 23.9877 21.9238H24.7877ZM24.9319 21.2129C25.0235 20.9747 25.1726 20.7476 25.3883 20.5319L24.8226 19.9662C24.537 20.2518 24.3215 20.5715 24.1853 20.9257L24.9319 21.2129ZM25.3883 20.5319C25.5955 20.3247 25.8675 20.1467 26.2148 20.0037L25.9102 19.2639C25.4827 19.4399 25.1168 19.672 24.8226 19.9662L25.3883 20.5319ZM26.2187 20.002C26.942 19.6952 27.4692 19.6156 27.8334 19.6849L27.983 18.8991C27.3902 18.7861 26.6869 18.9344 25.9063 19.2656L26.2187 20.002ZM27.8366 19.6855C28.2394 19.7588 28.4763 19.9363 28.6143 20.1969L29.3213 19.8226C29.0491 19.3085 28.5797 19.0075 27.9798 18.8984L27.8366 19.6855Z" fill="black" mask="url(#path-1-outside-1_112_153)"/>
<defs>
<filter id="filter0_i_112_153" x="0.94043" y="0.356445" width="31.958" height="28.4727" filterUnits="userSpaceOnUse" color-interpolation-filters="sRGB">
<feFlood flood-opacity="0" result="BackgroundImageFix"/>
<feBlend mode="normal" in="SourceGraphic" in2="BackgroundImageFix" result="shape"/>
<feColorMatrix in="SourceAlpha" type="matrix" values="0 0 0 0 0 0 0 0 0 0 0 0 0 0 0 0 0 0 127 0" result="hardAlpha"/>
<feOffset dy="4"/>
<feGaussianBlur stdDeviation="2"/>
<feComposite in2="hardAlpha" operator="arithmetic" k2="-1" k3="1"/>
<feColorMatrix type="matrix" values="0 0 0 0 0.0177808 0 0 0 0 0.0197283 0 0 0 0 0.0372559 0 0 0 0.08 0"/>
<feBlend mode="normal" in2="shape" result="effect1_innerShadow_112_153"/>
</filter>
</defs>
</svg>
